<svg xmlns="http://www.w3.org/2000/svg" width="600" height="600" viewBox="0 0 865.76 682.89">
  <g>
    <g id="a">
      <g>
        <g>
          <path d="M523.97,381.06s-28.81,13.69-33.42-.95v-67.18l23.8-9.88,9.62,78Z" fill="#ffcb9a"/>
          <g opacity=".2">
            <path d="M523.97,381.06s-28.81,13.69-33.42-.95v-67.18l23.8-9.88,9.62,78Z"/>
          </g>
          <path d="M501.97,387.47c-2.41,0-4.69-.34-6.64-1.19-2.67-1.16-4.46-3.18-5.35-5.99l-.03-.18v-67.57l24.88-10.33,9.77,79.2-.39,.18c-.62,.29-12.51,5.88-22.25,5.88Zm-10.83-7.45c.79,2.43,2.36,4.17,4.67,5.17,8.56,3.73,24.81-3.27,27.52-4.5l-9.47-76.8-22.71,9.43v66.69Z" fill="#253238"/>
          <g>
            <path d="M405.06,158.3h-3.51l-9.22,6.92c-1.04,.78-1.65,2-1.65,3.31v1.47l-9.25,.71c-8.06,.61-16.01,2.29-23.63,4.98l-28.55,10.08,21.48-50.56s1.63-6.52-.82-12.78c0,0,2.45-5.28,1.9-11.07,0,0-14.95-12.31-36.43-6.87v9.81s-6.8,4.05-11.42,14.38l-26.64,51.38s-15.22,33.71,21.2,45.13l46.87,16.36c3.22,1.12,5.45,4.08,5.65,7.49l7.29,126.22s72.82,8.98,135.91,4.64v-46.71s28.89-2.89,25.52-32.75l-9.1-61.24c-1.41-9.51-3.72-18.86-6.96-27.91-4.85-13.55-12.6-30.2-21.98-32.44,0,0-29.62-10.11-41.9-20.23l-34.76-.29Z" fill="#9dddb6"/>
            <path d="M457.2,381.64c-51.01,0-98.35-5.75-98.94-5.82l-.49-.06-.03-.49-7.29-126.22c-.18-3.18-2.25-5.91-5.25-6.96l-46.87-16.36c-11.09-3.48-18.58-9.37-22.23-17.52-5.98-13.35,.61-28.26,.68-28.41l26.66-51.41c4.15-9.27,9.98-13.53,11.35-14.44v-9.94l.45-.11c21.52-5.44,36.8,6.87,36.95,6.99l.19,.16,.02,.25c.49,5.26-1.38,10.03-1.85,11.14,2.36,6.28,.82,12.63,.75,12.9l-20.98,49.41,27.29-9.63c7.67-2.71,15.67-4.39,23.78-5.01l8.71-.66v-.92c0-1.48,.71-2.89,1.89-3.78l9.38-7.03h3.71l34.97,.29,.16,.13c12.06,9.93,41.42,20.02,41.71,20.12,9.58,2.29,17.45,19.1,22.35,32.8,3.2,8.95,5.55,18.38,6.99,28.03l9.1,61.24c1.04,9.17-.82,16.75-5.51,22.55-6.86,8.49-17.49,10.45-20.01,10.81v46.74l-.55,.04c-12.17,.84-24.73,1.17-37.08,1.17Zm-98.31-6.94c6.48,.77,75.26,8.63,134.75,4.62v-46.69l.53-.05c.12-.01,12.41-1.35,19.75-10.45,4.48-5.55,6.24-12.83,5.25-21.64l-9.1-61.22c-1.42-9.57-3.75-18.92-6.93-27.8-4.8-13.43-12.44-29.89-21.56-32.07-.35-.12-29.65-10.19-41.97-20.21l-37.85-.29-9.06,6.8c-.89,.67-1.42,1.72-1.42,2.83v2.02l-9.8,.75c-8.01,.61-15.91,2.27-23.48,4.95l-29.82,10.53,22-51.8h0s1.52-6.35-.82-12.33l-.09-.23,.11-.23c.02-.05,2.3-5.06,1.87-10.51-1.79-1.36-15.87-11.42-35.27-6.72v9.68l-.29,.17c-.07,.04-6.7,4.1-11.18,14.12l-26.66,51.41c-.05,.12-6.43,14.56-.66,27.42,3.51,7.82,10.75,13.49,21.51,16.87l46.89,16.36c3.46,1.21,5.83,4.35,6.04,8.01l7.26,125.72Z" fill="#253238"/>
          </g>
          <path d="M445.36,191.93c-.13,0-.27-.05-.37-.13l-17-13.79c-.25-.21-.29-.58-.09-.83,.21-.26,.58-.29,.83-.09l16.44,13.34,10.5-20.3c.15-.29,.51-.41,.8-.25,.29,.15,.4,.51,.25,.8l-10.83,20.95c-.08,.16-.23,.27-.41,.31-.04,0-.08,.01-.12,.01Z" fill="#253238"/>
          <path d="M422.44,255.74c-.31,0-.57-.24-.59-.55l-3.81-49.84c-.02-.33,.22-.61,.55-.64,.3-.02,.61,.22,.64,.55l3.81,49.84c.02,.33-.22,.61-.55,.64-.01,0-.03,0-.05,0Z" fill="#253238"/>
          <g>
            <path d="M490.55,380.11l2.88,38.77h-132.92l2.12-43.16s69.81,7.03,127.91,4.39Z" fill="#ffcb9a"/>
            <path d="M494.08,419.48h-134.18l2.18-44.4,.62,.06c.7,.07,70.43,7,127.83,4.38l.58-.03,2.97,39.98Zm-132.93-1.19h131.66l-2.79-37.56c-54.47,2.42-119.75-3.67-126.8-4.35l-2.06,41.92Z" fill="#253238"/>
          </g>
          <path d="M481.48,305.45c-.21,0-.41-.11-.52-.31-.14-.25-3.26-6.19,1.34-16.53,.13-.3,.48-.43,.78-.3,.3,.13,.43,.48,.3,.78-4.35,9.76-1.42,15.42-1.38,15.48,.15,.29,.05,.65-.24,.8-.09,.05-.19,.07-.28,.07Z" fill="#253238"/>
          <path d="M485.34,284.88c-.29,0-.55-.22-.59-.52l-7.84-60.86c-.04-.32,.19-.62,.51-.66,.32-.04,.62,.19,.66,.51l7.84,60.86c.04,.32-.19,.62-.51,.66-.03,0-.05,0-.08,0Z" fill="#253238"/>
          <path d="M320.8,216.63c-.12,0-.24-.03-.34-.11-.27-.19-.33-.56-.15-.83,10.07-14.39,9.16-25.5,8.58-28.78l-9.95,9.64c-.24,.23-.61,.22-.84-.01-.23-.23-.22-.61,.01-.84l10.71-10.38c.15-.14,.36-.2,.56-.15,.2,.05,.36,.2,.42,.4,.16,.53,3.84,13.13-8.52,30.79-.12,.16-.3,.25-.49,.25Z" fill="#253238"/>
          <path d="M359.34,227.46c-.33,0-.59-.27-.59-.59,0-29.97,7.22-53.75,7.29-53.99,.1-.31,.43-.49,.74-.39,.31,.1,.49,.43,.39,.74-.07,.24-7.24,23.86-7.24,53.64,0,.33-.27,.59-.59,.59Z" fill="#253238"/>
          <path d="M390.68,194.97c-.08,0-.17-.02-.24-.05-.21-.1-.35-.31-.35-.54v-24.38c0-.33,.27-.59,.59-.59s.59,.27,.59,.59v23.07l15.53-13.74c.25-.22,.62-.19,.84,.05,.22,.25,.19,.62-.05,.84l-16.52,14.61c-.11,.1-.25,.15-.39,.15Z" fill="#253238"/>
          <path d="M349.91,123.01c-.09,0-.18-.02-.26-.06-22.51-11-34-8.12-34.11-8.09-.32,.08-.64-.1-.73-.42s.1-.64,.42-.73c.48-.13,11.96-3.05,34.94,8.17,.29,.14,.42,.5,.27,.79-.1,.21-.31,.33-.53,.33Z" fill="#253238"/>
          <g>
            <path d="M321.67,103.09s3.69-7.34,1.47-21.45c-.95-6.03-3.12-11.8-6.24-17.04l-6.66-11.17c-.89-1.5-.36-3.44,1.18-4.27h0c1.37-.74,3.08-.33,3.97,.95l10.3,14.84s-.8-7.24,4.83-13.07l6.6-6.91c1.18-1.24,3.09-1.45,4.51-.5h0c1.63,1.09,2.06,3.3,.96,4.92l-5.24,7.71s-1.81,2.41-1.21,5.03c0,0,6.64-8.29,12.87-8.47,0,0,4.62-1.79,4.83,4.24v13.7s4.22,9.23-1.21,25.92l-5.21,10.99s-9.27-6.32-25.76-5.43Z" fill="#fff"/>
            <path d="M347.67,109.4l-.57-.39c-.09-.06-9.32-6.19-25.4-5.33l-1.02,.05,.46-.91c.04-.07,3.58-7.37,1.41-21.09-.92-5.85-3-11.52-6.17-16.83l-6.66-11.17c-.52-.86-.65-1.88-.38-2.85,.27-.97,.9-1.77,1.79-2.25,1.64-.88,3.68-.39,4.74,1.13l9.21,13.26c.14-2.63,1.01-7.41,5.01-11.56l6.6-6.9c1.39-1.45,3.6-1.69,5.27-.58,.92,.61,1.55,1.55,1.76,2.64,.21,1.09-.01,2.19-.64,3.11l-5.24,7.71s-1.08,1.47-1.21,3.22c2.08-2.3,7.22-7.38,12.27-7.58,.44-.15,2.18-.63,3.63,.33,1.19,.79,1.83,2.29,1.9,4.48v13.59c.51,1.2,3.93,10.34-1.23,26.22l-5.53,11.68Zm-22.83-6.99c12.49,0,20.22,4,22.34,5.26l4.92-10.39c5.25-16.16,1.24-25.33,1.2-25.42l-.05-.12v-.13s0-13.7,0-13.7c-.06-1.76-.52-2.95-1.37-3.51-1.12-.75-2.64-.19-2.66-.18l-.19,.04c-5.89,.17-12.36,8.16-12.42,8.24l-.76,.95-.28-1.19c-.66-2.85,1.23-5.41,1.31-5.52l5.22-7.69c.44-.65,.6-1.44,.45-2.22s-.6-1.44-1.25-1.88c-1.19-.79-2.77-.62-3.75,.42l-6.6,6.91c-5.38,5.57-4.67,12.53-4.67,12.6l.26,2.32-11.64-16.77c-.72-1.03-2.1-1.36-3.2-.77-.6,.32-1.03,.86-1.21,1.52-.18,.66-.09,1.34,.26,1.92l6.66,11.17c3.25,5.44,5.37,11.25,6.32,17.25,1.82,11.51-.23,18.53-1.14,20.9,.77-.03,1.52-.04,2.26-.04Z" fill="#253238"/>
          </g>
          <path d="M339.37,89.28c-.25,0-.48-.16-.56-.41-.04-.13-3.97-12.82,8.64-18.87,.13-2.18,.8-13.85,.99-16.37,.02-.33,.31-.57,.63-.55,.33,.02,.57,.31,.55,.63-.2,2.76-1,16.56-1,16.7-.01,.22-.15,.41-.34,.5-12.03,5.54-8.49,17.09-8.33,17.58,.1,.31-.07,.64-.38,.74-.06,.02-.12,.03-.18,.03Z" fill="#253238"/>
          <path d="M342.59,67.16c-.11,0-.22-.03-.32-.09-.28-.18-.36-.54-.18-.82,.1-.15,2.42-3.74,6.21-5.62,.29-.14,.65-.03,.79,.27,.15,.29,.03,.65-.27,.79-3.48,1.73-5.71,5.16-5.74,5.2-.11,.18-.3,.27-.5,.27Z" fill="#253238"/>
          <g>
            <path d="M378.75,334.6s4.16,23.51,42.64,20.12l29.21-4.69s30.53-10.51,23.61-31.72l-95.46,16.3Z" fill="#fff"/>
            <path d="M414.19,355.64c-31.93,0-35.99-20.71-36.03-20.93l-.1-.59,96.55-16.48,.16,.49c7.02,21.52-23.67,32.36-23.98,32.47l-.1,.02-29.21,4.69c-2.58,.23-5.01,.33-7.29,.33Zm-34.72-20.56c.99,3.55,7.83,22.05,41.87,19.05l29.11-4.68c1.32-.47,29.27-10.76,23.35-30.47l-94.33,16.1Z" fill="#253238"/>
          </g>
          <g>
            <path d="M143.31,349.5v7.53l-8.79,4.89c-1.67,1.11-2.67,2.98-2.67,4.99v49.19c0,1.1,.89,2,2,2h26.88c1.1,0,2-.89,2-2v-48.41c0-1.92-.92-3.73-2.48-4.85l-8.83-6.02v-7.31h-8.11Z" fill="#fff"/>
            <path d="M160.72,418.69h-26.88c-1.43,0-2.59-1.16-2.59-2.59v-49.19c0-2.21,1.1-4.25,2.93-5.48l8.52-4.75v-7.78h9.29v7.59l8.57,5.84c1.72,1.24,2.74,3.24,2.74,5.34v48.41c0,1.43-1.16,2.59-2.59,2.59Zm-16.82-68.6v7.29l-9.09,5.06c-1.46,.98-2.36,2.66-2.36,4.47v49.19c0,.78,.63,1.41,1.41,1.41h26.88c.78,0,1.41-.63,1.41-1.41v-48.41c0-1.73-.83-3.36-2.23-4.38l-9.07-6.19v-7.03h-6.92Z" fill="#253238"/>
          </g>
          <g>
            <rect x="140.12" y="338.71" width="14.33" height="12.86" rx="1.29" ry="1.29" fill="#fff080"/>
            <path d="M153.16,352h-11.75c-.95,0-1.72-.77-1.72-1.72v-10.28c0-.95,.77-1.72,1.72-1.72h11.75c.95,0,1.72,.77,1.72,1.72v10.28c0,.95-.77,1.72-1.72,1.72Zm-11.75-12.86c-.48,0-.86,.39-.86,.86v10.28c0,.48,.39,.86,.86,.86h11.75c.48,0,.86-.39,.86-.86v-10.28c0-.48-.39-.86-.86-.86h-11.75Z" fill="#253238"/>
          </g>
          <g>
            <path d="M134.9,376.64v37.1c0,.85,.69,1.53,1.53,1.53h21.85c.85,0,1.53-.69,1.53-1.53v-37.1h-24.92Z" fill="#fff080"/>
            <path d="M158.29,415.7h-21.85c-1.08,0-1.96-.88-1.96-1.96v-37.53h25.77v37.53c0,1.08-.88,1.96-1.96,1.96Zm-22.96-38.63v36.67c0,.61,.49,1.1,1.1,1.1h21.85c.61,0,1.1-.49,1.1-1.1v-36.67h-24.06Z" fill="#253238"/>
          </g>
          <g>
            <rect x="131.85" y="434.31" width="606.04" height="232.68" fill="#fff"/>
            <path d="M738.49,667.58H131.26v-233.86H738.49v233.86Zm-606.04-1.19H737.3v-231.49H132.44v231.49Z" fill="#253238"/>
          </g>
          <g opacity=".35">
            <path d="M721.4,165.54c5.94,19.78-.78,39.97-9.52,39.82-.86-.01-1.75-.59-2.55-1.13-10.7-7.19-16.2-22.32-27.84-27.33-3.78-1.63-7.71-1.88-11.31-1.44-13.12,1.62-22.19,13.42-20.04,27.35,2.34,15.21,16.34,30.32,15.72,44.41-.1,2.32-.7,4.63-2.44,5.83-2.21,1.52-5.65,.91-8.78,.08-9.08-2.42-18.17-6.38-26.73-11.66-5.73-3.53-11.36-7.72-17.45-9.86-13.23-4.66-24.59,1.66-31.34,10.17-16.21,20.44-13.69,54.41,5.06,81.82l102.65-4.62c-1.54-2.78-3.85-5.37-5-8.25-2.87-7.2,2.28-12.89,6.69-17.68,6.35-6.91,11.69-14.89,15.85-23.73,2.29-4.87,4.24-10.42,2.61-16.49-2.99-11.1-16.46-19.35-20.14-30.67-2.31-7.09-.26-13.82,1.92-20.01,7.62,5.12,12.43,16,20.67,17.15,13.99,1.96,21.49-25.63,11.96-53.77Z" fill="#fff"/>
          </g>
          <g>
            <path d="M603.92,303.08c-.84-.7-1.77-1.32-2.81-1.64-1.11-.34-2.31-.33-3.46-.15-2.85,.46-5.55,2.06-7.15,4.47-1.6,2.41-2.01,5.62-.85,8.28l17.6-1.12c.93-.36,1.45-1.41,1.45-2.4,0-.99-.41-1.94-.9-2.8-.99-1.77-2.31-3.35-3.87-4.64Z" fill="#e5e6e7"/>
          </g>
          <g>
            <path d="M623.26,308.29c-.98-.26-2.02,.03-2.97,.38-.5,.19-.99,.4-1.47,.63-.2,.1-.4,.2-.55,.35-.5,.47-.46,1.28-.25,1.94,.5,1.59,1.83,2.89,3.42,3.37l.28-.62c.18,.24,.53,.25,.83,.2,1.44-.24,2.7-1.45,2.9-2.9,.2-1.45-.77-3-2.18-3.37Z" fill="#e5e6e7"/>
          </g>
          <g>
            <path d="M660.44,303.02c-.2-.05-.41,0-.6,.07-2,.66-3.88,1.7-5.5,3.05-1.22,1.02-2.39,2.27-3.96,2.55-1.53,.28-3.2-.57-3.89-1.97-.17,1.56-2.44,2.06-3.73,1.17-1.29-.89-1.81-2.52-2.24-4.03-.3-1.04-.6-2.08-.89-3.12-1.53,2.02-1.81,4.91-.7,7.18,.3,.62,.57,1.6-.09,1.8-.17,.05-.35,.02-.52-.01-1.21-.22-2.43-.45-3.64-.67,.43,2.17,2.08,4.05,4.17,4.76l16.06,.4c.72-.46,1.58-.65,2.38-.96,.8-.31,1.6-.82,1.89-1.62,.3-.8-.19-1.91-1.05-1.94-.39-.02-.84,.16-1.13-.11-.19-.18-.2-.47-.16-.73,.23-1.69,1.67-2.93,3.08-3.89,.35-.24,.73-.5,.9-.89,.17-.39,.03-.95-.38-1.06Z" fill="#e5e6e7"/>
          </g>
          <g>
            <path d="M640.34,296.03l.2-.05c.18-.36,.36-.72,.54-1.08,.27-.54,.55-1.11,.56-1.72,0-.61-.34-1.27-.93-1.41-.46-.11-.95,.12-1.24,.49-.29,.37-.39,.86-.38,1.33,.02,.95,.5,1.88,1.25,2.45Z" fill="#e5e6e7"/>
          </g>
          <g>
            <path d="M678.65,309.78c-.85-.64-1.95-.82-3.01-.83-2.33-.03-4.88,.81-6.04,2.83-.24,.41-.41,.88-.39,1.36,.02,.48,.27,.96,.7,1.17l10.66-.58c-.33-1.46-.73-3.05-1.93-3.95Z" fill="#e5e6e7"/>
          </g>
          <g>
            <path d="M680.17,301.67c-.66-.23-1.49-.15-1.91,.41-.56,.73-.14,1.78,.36,2.56,.18,.28,2.15,1.71,3.23,.37,.09-.11,.14-.26,.15-.4,.15-1.24-.65-2.53-1.83-2.93Z" fill="#e5e6e7"/>
          </g>
          <g>
            <path d="M616.25,303.15c-.18-.21-.43-.3-.67-.36-.54-.13-1.09-.16-1.63-.09-.48,.06-.99,.24-1.29,.71-.32,.51-.25,1.23-.11,1.88,.17,.82,1.68,1.5,2.21,1.28h0c.12,0,.24-.02,.35-.06,.67-.22,1.18-.99,1.36-1.85,.11-.51,.1-1.14-.22-1.51Z" fill="#e5e6e7"/>
          </g>
          <g>
            <path d="M697.65,322.29h-9.68c-3.27,0-5.92,2.65-5.92,5.92s2.65,5.92,5.92,5.92h9.68c3.27,0,5.92-2.65,5.92-5.92s-2.65-5.92-5.92-5.92Z" fill="#fff"/>
            <path d="M697.65,334.72h-9.68c-3.59,0-6.51-2.92-6.51-6.51s2.92-6.51,6.51-6.51h9.68c3.59,0,6.51,2.92,6.51,6.51s-2.92,6.51-6.51,6.51Zm-9.68-11.83c-2.94,0-5.32,2.39-5.32,5.32s2.39,5.32,5.32,5.32h9.68c2.94,0,5.32-2.39,5.32-5.32s-2.39-5.32-5.32-5.32h-9.68Z" fill="#253238"/>
          </g>
          <g>
            <path d="M692.71,314.41h-116.11c-2.92,15.92,6.74,90.14,9.54,89.79,0,5.35,97.02,5.35,97.02,0,3.07,.38,11.93-74.73,9.54-89.79Z" fill="#fff"/>
            <path d="M634.66,408.8c-12.72,0-24.58-.36-33.4-1.01-13.56-1-15.41-2.32-15.67-3.21-.03-.03-.07-.06-.1-.1-3.67-3.88-12.2-75.26-9.47-90.19l.09-.49h117.11l.08,.5c2.43,15.36-6.01,86.62-9.45,90.17-.04,.05-.09,.08-.13,.12-.27,.89-2.2,2.2-15.66,3.2-8.81,.65-20.67,1.01-33.4,1.01Zm-47.92-5.28v.67c.86,1.66,19.03,3.42,47.92,3.42s47.06-1.77,47.93-3.47v-.67l.49,.1c3.02-3.84,11.17-73.02,9.12-88.57h-115.1c-2.62,16.66,6.66,84.91,9.17,88.58l.46-.06Z" fill="#253238"/>
          </g>
          <g>
            <path d="M698.7,312.56h-128.23c-1.07,0-1.94,1.39-1.94,3.11s.87,3.11,1.94,3.11h128.23c1.07,0,1.94-1.39,1.94-3.11s-.87-3.11-1.94-3.11Z" fill="#253238"/>
            <path d="M698.7,319.37h-128.23c-1.42,0-2.53-1.63-2.53-3.7s1.11-3.7,2.53-3.7h128.23c1.42,0,2.53,1.63,2.53,3.7s-1.11,3.7-2.53,3.7Zm-128.23-6.22c-.64,0-1.34,1.03-1.34,2.52s.71,2.52,1.34,2.52h128.23c.64,0,1.34-1.04,1.34-2.52s-.71-2.52-1.34-2.52h-128.23Z" fill="#253238"/>
          </g>
          <g>
            <path d="M577.69,322.29h-9.68c-3.27,0-5.92,2.65-5.92,5.92s2.65,5.92,5.92,5.92h9.68c3.27,0,5.92-2.65,5.92-5.92s-2.65-5.92-5.92-5.92Z" fill="#fff"/>
            <path d="M577.69,334.72h-9.68c-3.59,0-6.51-2.92-6.51-6.51s2.92-6.51,6.51-6.51h9.68c3.59,0,6.51,2.92,6.51,6.51s-2.92,6.51-6.51,6.51Zm-9.68-11.83c-2.94,0-5.32,2.39-5.32,5.32s2.39,5.32,5.32,5.32h9.68c2.94,0,5.32-2.39,5.32-5.32s-2.39-5.32-5.32-5.32h-9.68Z" fill="#253238"/>
          </g>
          <g>
            <rect x="598.45" y="409.91" width="79.39" height="9.29" fill="#253238"/>
            <path d="M678.43,419.79h-80.57v-10.47h80.57v10.47Zm-79.39-1.19h78.2v-8.1h-78.2v8.1Z" fill="#253238"/>
          </g>
          <g>
            <path d="M621.55,419.19l1.98-6.73c.63-2.15,3.09-3.66,5.97-3.66h43.5c2.85,0,5.29,1.48,5.95,3.6l2.12,6.79h4.4l-2.35-7.55c-1.12-3.6-5.28-6.11-10.11-6.11h-43.5c-4.9,0-9.07,2.55-10.15,6.21l-2.19,7.45h4.38Z" fill="#253238"/>
            <path d="M686.28,419.79h-5.64l-2.25-7.21c-.58-1.87-2.8-3.18-5.39-3.18h-43.5c-2.62,0-4.85,1.33-5.4,3.23l-2.1,7.16h-5.62l2.41-8.21c1.15-3.91,5.55-6.64,10.71-6.64h43.5c5.09,0,9.48,2.68,10.68,6.53l2.59,8.32Zm-4.77-1.19h3.16l-2.12-6.78c-1.05-3.35-4.97-5.69-9.55-5.69h-43.5c-4.64,0-8.58,2.38-9.58,5.79l-1.96,6.69h3.15l1.85-6.3c.71-2.4,3.39-4.08,6.54-4.08h43.5c3.1,0,5.78,1.65,6.52,4.01l1.99,6.38Z" fill="#253238"/>
          </g>
          <g>
            <path d="M577.55,419.19l4.34-7.58c.97-1.7,3.18-2.81,5.61-2.81h99.68c2.37,0,4.55,1.06,5.55,2.71l4.67,7.68h4.72l-5.5-9.06c-1.7-2.8-5.4-4.6-9.43-4.6h-99.68c-4.13,0-7.87,1.87-9.53,4.77l-5.09,8.89h4.67Z" fill="#253238"/>
            <path d="M703.16,419.79h-6.1l-4.84-7.96c-.9-1.47-2.88-2.42-5.04-2.42h-99.68c-2.22,0-4.22,.98-5.09,2.51l-4.51,7.88h-6.03l5.59-9.78c1.76-3.08,5.7-5.07,10.04-5.07h99.68c4.23,0,8.13,1.92,9.94,4.89l6.05,9.96Zm-5.44-1.19h3.33l-4.96-8.16c-1.59-2.62-5.1-4.32-8.92-4.32h-99.68c-3.92,0-7.46,1.75-9.01,4.47l-4.58,8.01h3.3l4.17-7.28c1.08-1.89,3.48-3.11,6.12-3.11h99.68c2.57,0,4.95,1.18,6.06,3l4.49,7.39Z" fill="#253238"/>
          </g>
          <g>
            <path d="M597.92,394.1c.73-5.29-4.07-10.48-9.24-11.72-1.48-.35-3.13-.45-4.24-1.46-1.7-1.56-1.17-4.26-.3-6.56,.08-.22-.18-.41-.36-.26-2.54,2.16-4.16,5.38-4.31,8.65-.03,.73,.02,1.51,.48,2.06,.34,.4,.84,.61,1.33,.8,2.66,1.1,5.63,2.69,6.03,5.54,.26,1.86-.71,3.73-1.93,5.23-.42,.52-.88,1.01-1.36,1.47-2.33,2.23-2.92,5.77-1.11,8.44,2.39,3.53,6.53,5.92,10.92,5.81h17.55c-3.03-2.27-17.75-7.5-13.47-18.01Z" fill="#ffcb9a"/>
            <path d="M593.53,412.7c-4.31,0-8.55-2.31-11.11-6.08-1.92-2.84-1.42-6.71,1.19-9.2,.46-.44,.9-.92,1.31-1.42,.96-1.18,2.05-2.97,1.8-4.77-.36-2.58-3.22-4.07-5.67-5.08-.5-.2-1.12-.46-1.55-.97-.62-.73-.66-1.7-.63-2.47,.16-3.41,1.85-6.8,4.52-9.07,.29-.25,.69-.26,1-.05,.31,.22,.43,.61,.3,.96-1.09,2.89-1.04,4.83,.15,5.92,.74,.67,1.81,.88,2.95,1.11,.35,.07,.69,.14,1.03,.22,5.21,1.25,10.47,6.64,9.69,12.38l-.04,.14c-3.32,8.13,5.41,12.89,10.62,15.74,1.16,.63,2.08,1.13,2.65,1.57l1.42,1.07h-19.33c-.1,0-.2,0-.3,0Zm-10.42-37.13c-1.81,1.99-2.93,4.6-3.05,7.21-.04,.81,.07,1.32,.34,1.64,.25,.29,.68,.47,1.1,.64,2.74,1.13,5.95,2.83,6.39,6.01,.31,2.23-.95,4.32-2.06,5.68-.43,.53-.91,1.05-1.41,1.52-2.2,2.09-2.63,5.32-1.03,7.68,2.39,3.53,6.4,5.64,10.41,5.55h15.44c-.24-.13-.49-.27-.75-.41-5.18-2.83-14.81-8.09-11.18-17.16,.65-5.08-4.1-9.86-8.8-10.99-.32-.08-.65-.14-.98-.21-1.25-.24-2.54-.5-3.52-1.4-1.35-1.24-1.66-3.14-.92-5.78Z" fill="#253238"/>
          </g>
          <g>
            <path d="M606.33,390.87c1.84-.72,4.51-1.16,5.03-2.78,.64-1.99-.95-4.47-2.32-6.69,5.66,3.9,8.13,8.86,7.71,9.86-1.02,2.45-6.02,5.19-6.08,5.5,0,0,0,.02,0,.02-1.29,1.16-2.1,2.66-2.23,4.41-.23,3.21,7.39,10.91,7.39,10.91h-12.48s-1.96-2.1-3.19-4.21c-.97-1.67-5.52-12.44,6.17-17.03Z" fill="#ffcb9a"/>
            <path d="M615.83,412.7h-12.74l-.18-.19c-.08-.09-2.02-2.17-3.27-4.31-.85-1.46-2.73-6.25-1.16-10.75,1.11-3.18,3.67-5.58,7.63-7.13,.43-.17,.9-.32,1.38-.48,1.47-.48,2.99-.97,3.3-1.93,.54-1.68-.88-3.97-2.14-6l-1.6-2.59,2.32,1.59c5.47,3.76,8.57,9.01,7.92,10.57-.81,1.92-3.61,3.84-5.28,4.99-.27,.19-.57,.39-.75,.52v.04l-.2,.18c-1.22,1.1-1.92,2.49-2.03,4.02-.17,2.41,5.15,8.36,7.22,10.45l1,1.01h-1.42Zm-12.22-1.18h10.83c-2.13-2.28-6.79-7.59-6.59-10.36,.13-1.79,.92-3.41,2.3-4.7,.12-.22,.42-.42,1.19-.95,1.46-1,4.19-2.87,4.86-4.47,.14-.56-1.27-3.91-5.11-7.28,.78,1.54,1.28,3.1,.83,4.52-.49,1.54-2.39,2.15-4.06,2.7-.46,.15-.91,.29-1.31,.45h0c-3.62,1.42-5.95,3.58-6.94,6.42-1.41,4.06,.34,8.52,1.07,9.76,.97,1.67,2.44,3.36,2.94,3.91Z" fill="#253238"/>
          </g>
          <g>
            <path d="M600.24,379.83c-.43-1.24-.28-2.57,.01-3.88,.06-.28-.3-.45-.48-.22-.63,.78-1.31,1.53-2.02,2.23-.87,.86-1.89,1.95-1.52,3.11,.16,.52,.57,.92,.95,1.31,1.79,1.81,2.37,3.78,2.56,4.84,.06,.31,.45,.44,.67,.21,.86-.84,2.44-2.46,3.21-3.63,.13-.2,.07-.47-.14-.58-1.41-.78-2.72-1.88-3.25-3.39Z" fill="#ffcb9a"/>
            <path d="M600.13,388.14c-.1,0-.2-.02-.3-.05-.35-.11-.61-.41-.67-.77-.17-.96-.71-2.82-2.4-4.52-.43-.43-.89-.9-1.09-1.54-.5-1.58,.91-2.97,1.67-3.72,.7-.69,1.36-1.42,1.98-2.18,.26-.32,.69-.42,1.06-.24,.36,.17,.55,.57,.46,.96-.23,1.03-.44,2.36-.03,3.55h0c.41,1.17,1.41,2.2,2.98,3.07,.24,.13,.42,.37,.49,.63,.07,.27,.02,.56-.14,.79-.81,1.22-2.41,2.85-3.29,3.72-.19,.19-.44,.29-.7,.29Zm-.68-11.12c-.42,.47-.85,.93-1.29,1.36-.8,.79-1.63,1.7-1.37,2.51,.12,.37,.44,.7,.79,1.05,1.74,1.76,2.41,3.65,2.67,4.81,.74-.74,2.05-2.09,2.77-3.12-1.73-1-2.85-2.21-3.34-3.62h0c-.35-1.02-.35-2.06-.23-3Z" fill="#253238"/>
          </g>
          <g>
            <path d="M635.31,372.61c.05-1.74-.16-4.59-2.32-7.97-.1-.16-.35-.07-.32,.12,.24,1.76,.42,3.6,.1,5.26-.29,1.51-.94,2.63-1.7,3.47-.37,.41-.51,.97-.34,1.5,.39,1.22,.91,2.72,1.24,3.67,.06,.17,.32,.14,.33-.05,.24-2.34,.87-3.09,1.79-3.75,.73-.53,1.19-1.34,1.21-2.25Z" fill="#ffcb9a"/>
            <path d="M632.14,379.37c-.32,0-.61-.2-.72-.51-.34-.96-.86-2.46-1.25-3.69-.23-.72-.05-1.5,.47-2.08,.8-.89,1.32-1.96,1.55-3.18,.3-1.58,.13-3.37-.1-5.07-.05-.36,.16-.7,.5-.82,.35-.13,.72,0,.91,.31,1.7,2.67,2.49,5.39,2.41,8.31h0c-.03,1.08-.56,2.06-1.46,2.71-.74,.53-1.32,1.11-1.55,3.33-.04,.36-.31,.64-.67,.68-.03,0-.06,0-.09,0Zm-.41-.81h0s0,0,0,0Zm1.76-11.8c.08,1.15,.07,2.29-.13,3.38-.28,1.44-.89,2.71-1.84,3.75-.24,.26-.32,.61-.22,.92,.21,.67,.47,1.42,.71,2.12,.35-1.3,.94-1.97,1.75-2.55,.59-.43,.94-1.08,.96-1.78,.06-2.03-.35-3.96-1.23-5.85Z" fill="#253238"/>
          </g>
          <g>
            <path d="M592.83,372.07c.46-.31,.75-.81,.78-1.36,.08-1.49,.04-4.31-2.31-7.68,.24,1.68,.49,3.49,.18,5.1-.22,1.17-.71,2.07-1.28,2.75-.4,.48-.56,1.12-.36,1.72,.44,1.35,1.02,2.98,1.2,3.49,.16-2.74,.8-3.35,1.79-4.02Z" fill="#ffcb9a"/>
            <path d="M591.46,379.03l-.98-2.75c-.18-.51-.76-2.15-1.2-3.51-.25-.77-.07-1.62,.47-2.28,.58-.7,.97-1.54,1.15-2.49,.3-1.57,.03-3.42-.18-4.91l-.36-2.47,1.43,2.05c2.65,3.79,2.47,7,2.42,8.06-.04,.73-.42,1.4-1.04,1.82h0c-.77,.52-1.38,.94-1.53,3.56l-.17,2.91Zm.74-13.18c.03,.8,0,1.61-.14,2.39-.22,1.14-.69,2.16-1.4,3.02-.28,.34-.38,.78-.26,1.16,.13,.41,.28,.85,.42,1.27,.37-1.13,.95-1.62,1.67-2.11,.31-.21,.5-.54,.52-.9,.06-1.19,.01-2.84-.82-4.82Z" fill="#253238"/>
          </g>
          <g>
            <path d="M669.19,360.13c.02-1.72,.43-4.34,2.75-7.38-.29,1.81-.57,3.76-.21,5.5,.19,.93,.55,1.69,1,2.33,.75,1.08,.97,2.44,.51,3.67-.41,1.11-.83,2.18-.99,2.58-.16-2.54-.75-3.38-1.65-4.03-.88-.63-1.43-1.6-1.41-2.68Z" fill="#ffcb9a"/>
            <path d="M671.83,369.54l-.17-2.66c-.16-2.5-.73-3.1-1.41-3.58-1.07-.76-1.68-1.92-1.66-3.17,.03-2.67,1-5.27,2.88-7.73l1.42-1.86-.37,2.31c-.25,1.6-.57,3.59-.21,5.29,.16,.77,.47,1.49,.9,2.11,.88,1.25,1.09,2.83,.58,4.22-.42,1.12-.83,2.18-.99,2.59l-.97,2.49Zm-.82-14.23c-.8,1.57-1.22,3.19-1.24,4.82h0c0,.86,.42,1.66,1.17,2.19,.69,.49,1.22,1.09,1.55,2.23,.06-.16,.12-.33,.19-.5,.38-1.02,.21-2.19-.44-3.13-.53-.76-.9-1.62-1.09-2.55-.21-.98-.22-2-.14-3.06Z" fill="#253238"/>
          </g>
          <g>
            <path d="M692.83,383.86c.64-.33,3.96-7.56-.76-11.67-1.92-1.67-4.2-2.71-6.92-2.91,5.19,5.36,1.86,10.02-2.99,10.99-4.58,.91-7.46,4.17-7.93,8.55,1.77,1.56,2.43,8.01-8.25,11.23-1.91,.58-5.61,8.17-4.08,12.05h19.73c2.21-1.03,8.96-8.83,5.97-14.74-2.9-1.76-3.27-6.38-1.79-9.02,1.48-2.64,4.25-3.05,7.03-4.48Z" fill="#ffcb9a"/>
            <path d="M681.76,412.7h-20.26l-.15-.38c-1.01-2.55,.03-6.32,1.32-9.01,.38-.79,1.75-3.41,3.13-3.83,6.73-2.03,8.36-5.19,8.73-6.89,.33-1.49-.11-2.8-.71-3.33l-.23-.2,.03-.3c.51-4.73,3.65-8.12,8.4-9.07,2.47-.49,4.36-1.95,4.94-3.81,.59-1.9-.19-4.04-2.26-6.18l-1.08-1.12,1.55,.11c2.72,.2,5.17,1.23,7.27,3.06,2.64,2.3,2.88,5.41,2.61,7.61-.29,2.37-1.31,4.69-1.97,5.03h0c-.76,.39-1.51,.7-2.24,1.01-1.91,.79-3.55,1.48-4.54,3.24-1.38,2.45-.98,6.67,1.58,8.23l.14,.09,.08,.15c1.03,2.04,1.09,4.42,.17,7.08-1.37,3.98-4.72,7.67-6.42,8.46l-.12,.06Zm-19.43-1.19h19.16c1.37-.74,4.43-4.07,5.69-7.72,.79-2.28,.77-4.3-.04-6.02-3.02-1.98-3.49-6.81-1.85-9.73,1.18-2.11,3.09-2.91,5.12-3.75,.69-.29,1.4-.58,2.11-.94,.34-.38,1.52-2.86,1.46-5.59-.05-2.13-.82-3.86-2.29-5.13-1.5-1.31-3.2-2.17-5.06-2.56,1.57,2.07,2.1,4.21,1.5,6.14-.71,2.27-2.95,4.04-5.84,4.62-4.13,.82-6.88,3.71-7.42,7.75,.74,.84,1.25,2.39,.85,4.24-.43,1.95-2.24,5.56-9.55,7.77-.5,.15-1.48,1.3-2.41,3.21-1.07,2.21-2.04,5.48-1.42,7.68Z" fill="#253238"/>
          </g>
          <g>
            <path d="M624.05,380.47c.2-2.48,1.78-4.32,2.51-6.45-5.32,1.65-7.75,7.87-8.1,12.28-.09,1.12,.31,2.2,.94,3.13,1.69,2.51,2.44,7.9-6.08,10.64-1.79,.57-3.94,8.16-1.62,12.04h25.26c-8.2-6.03-7.63-12.87-6.13-17.82,.3-.98-.16-2.04-1.1-2.44-2.93-1.25-6.23-4.56-5.67-11.38Z" fill="#ffcb9a"/>
            <path d="M638.76,412.7h-27.4l-.17-.29c-1.66-2.77-1.23-7.19-.13-10.12,.41-1.1,1.11-2.48,2.07-2.79,3.5-1.12,5.73-2.84,6.47-4.97,.79-2.29-.33-4.23-.7-4.77-.77-1.14-1.13-2.36-1.04-3.5,.31-3.87,2.45-10.92,8.52-12.8l1.11-.35-.38,1.1c-.28,.83-.69,1.62-1.08,2.38-.66,1.28-1.28,2.49-1.4,3.94h0c-.61,7.43,3.51,10.02,5.32,10.79,1.21,.51,1.83,1.87,1.44,3.16-1.36,4.5-2.23,11.17,5.92,17.17l1.45,1.07Zm-26.71-1.19h23.2c-5.49-4.65-7.13-10.35-4.99-17.39,.21-.71-.12-1.45-.77-1.72-2.04-.87-6.7-3.77-6.03-11.97h0c.14-1.68,.84-3.05,1.53-4.38,.16-.32,.32-.63,.47-.94-3.94,2-6.08,7.05-6.42,11.25-.09,1.11,.41,2.11,.84,2.75,.44,.66,1.81,3.01,.84,5.82-.88,2.53-3.31,4.45-7.23,5.71-.21,.07-.77,.59-1.33,2.08-1,2.65-1.33,6.44-.12,8.8Z" fill="#253238"/>
          </g>
          <g>
            <path d="M669.93,383.71c-1.66-4.44-4.71-7.23-9.01-8.12-.14-.03-.23,.16-.11,.25,1.52,1.18,2.53,3.91,2.35,6.09-.21,2.47-1.58,4.93-3.8,6.81-5.89,5.01-7.88,12.86-7.69,15.82,.19,2.96,1.16,5.79,3.02,7.54h13.78c-.24-.15-3.86-2.21-4.37-5.78-.34-2.38-.21-5.11,1.1-7.53,.55-1.02,1.62-2.34,2.72-3.49,2.17-2.3,3.16-5.48,2.69-8.61-.18-1.19-.41-2.27-.67-2.98Z" fill="#ffcb9a"/>
            <path d="M668.46,412.7h-14.01l-.17-.16c-1.84-1.73-2.98-4.55-3.2-7.93-.21-3.17,1.89-11.21,7.89-16.32,2.09-1.78,3.4-4.11,3.59-6.41,.17-2.04-.78-4.54-2.12-5.57-.27-.21-.36-.57-.22-.88,.14-.31,.47-.49,.81-.41,4.45,.92,7.72,3.85,9.45,8.49h0c.26,.7,.5,1.74,.7,3.1,.5,3.34-.53,6.66-2.84,9.1-1.19,1.27-2.15,2.49-2.63,3.37-1.35,2.49-1.31,5.27-1.04,7.17,.42,2.94,3.21,4.82,4.05,5.33l1.83,1.1-2.1,.02Zm-13.53-1.19h11.7c-1.27-1.07-2.79-2.79-3.12-5.1-.3-2.07-.34-5.12,1.17-7.9,.52-.96,1.54-2.28,2.81-3.62,2.06-2.18,2.98-5.14,2.53-8.11-.19-1.26-.41-2.25-.64-2.86h0c-1.41-3.76-3.79-6.23-7.1-7.35,1.01,1.47,1.62,3.57,1.47,5.41-.22,2.6-1.68,5.23-4,7.21-5.68,4.83-7.67,12.37-7.48,15.33,.2,2.98,1.14,5.44,2.67,6.98Zm6.24-36.14s0,0,0,0c0,0,0,0,0,0Z" fill="#253238"/>
          </g>
          <g>
            <path d="M657.51,364.74c.48-.07,.51-.77,.03-.87-3.97-.86-10.12,.03-13.48,3.16-3.68,3.43-6.11,8.68-5.41,15.29,.14,1.28,.62,2.49,1.22,3.62,2.91,5.45-1.34,9.62-5.61,11.85-2.16,1.13-3.54,3.32-3.49,5.76,.06,2.95,.48,6,1.39,8.56h24.37c-2.96-1.8-4.88-5.77-6.02-9.04-1.81-5.18,.59-10.79,2.43-14,.88-1.54,.61-3.47-.65-4.72-1.81-1.79-4.01-4.6-4.25-7.86-.61-8.18,5.39-11.17,9.47-11.75Z" fill="#ffcb9a"/>
            <path d="M658.65,412.7h-26.91l-.14-.39c-.86-2.41-1.36-5.44-1.43-8.74-.05-2.63,1.4-5.04,3.81-6.3,1.83-.96,5.05-3.02,5.99-6.08,.49-1.6,.28-3.27-.63-4.97-.74-1.38-1.16-2.64-1.29-3.84-.66-6.2,1.32-11.81,5.59-15.78,3.45-3.21,9.84-4.2,14.01-3.3,.5,.11,.83,.54,.81,1.05-.02,.51-.38,.92-.88,.99h0c-1.62,.23-9.65,1.85-8.96,11.12,.23,3.07,2.34,5.76,4.08,7.48,1.45,1.44,1.76,3.67,.75,5.43-1.65,2.88-4.15,8.45-2.38,13.51,1.06,3.03,2.92,7,5.77,8.73l1.81,1.1Zm-26.07-1.19h22.19c-1.9-1.74-3.51-4.51-4.82-8.25-1.92-5.5,.73-11.44,2.47-14.49,.74-1.3,.52-2.94-.55-4-1.88-1.86-4.17-4.8-4.42-8.23-.56-7.56,4.4-11.25,9.14-12.24-3.85-.55-9.18,.41-12.13,3.16-3.99,3.72-5.85,8.97-5.22,14.79,.11,1.04,.49,2.16,1.16,3.41,1.06,1.99,1.31,3.97,.72,5.88-1.07,3.47-4.58,5.73-6.57,6.78-2,1.05-3.22,3.05-3.17,5.22,.06,3,.49,5.75,1.22,7.98Z" fill="#253238"/>
          </g>
          <g>
            <path d="M618.89,288.59c0-2.26-1.67-4.09-3.73-4.09s-3.73,1.83-3.73,4.09,1.67,4.09,3.73,4.09,3.73-1.83,3.73-4.09Z" fill="#e5e6e7"/>
          </g>
          <g>
            <path d="M661.63,290.45c0-1.47-1.16-2.65-2.58-2.65s-2.58,1.19-2.58,2.65,1.16,2.65,2.58,2.65,2.58-1.19,2.58-2.65Z" fill="#e5e6e7"/>
          </g>
          <g>
            <circle cx="666" cy="302.93" r="1.51" fill="#e5e6e7"/>
          </g>
          <g>
            <path d="M593.5,294.25c0-1.51-1.22-2.73-2.73-2.73s-2.73,1.22-2.73,2.73,1.22,2.73,2.73,2.73,2.73-1.22,2.73-2.73Z" fill="#e5e6e7"/>
          </g>
          <g>
            <path d="M611.43,272.6c0-.63-.55-1.15-1.22-1.15s-1.22,.51-1.22,1.15,.55,1.15,1.22,1.15,1.22-.51,1.22-1.15Z" fill="#e3dbc5"/>
          </g>
          <g>
            <circle cx="607.99" cy="302.72" r="1.65" fill="#e5e6e7"/>
          </g>
          <g>
            <path d="M341.94,111.38c0,.83,.68,1.51,1.51,1.51s1.51-.67,1.51-1.51-.68-1.51-1.51-1.51-1.51,.68-1.51,1.51Z" fill="#fff080"/>
            <path d="M343.45,113.31c-1.07,0-1.94-.87-1.94-1.93s.87-1.94,1.94-1.94,1.94,.87,1.94,1.94-.87,1.93-1.94,1.93Zm0-3.01c-.59,0-1.08,.48-1.08,1.08s.48,1.08,1.08,1.08,1.08-.48,1.08-1.08-.48-1.08-1.08-1.08Z" fill="#253238"/>
          </g>
          <g>
            <path d="M336.29,120.68c0,1.16,.94,2.1,2.1,2.1s2.1-.94,2.1-2.1-.94-2.1-2.1-2.1-2.1,.94-2.1,2.1Z" fill="#fff080"/>
            <path d="M338.39,123.21c-1.39,0-2.53-1.13-2.53-2.53s1.13-2.53,2.53-2.53,2.53,1.13,2.53,2.53-1.13,2.53-2.53,2.53Zm0-4.19c-.92,0-1.67,.75-1.67,1.67s.75,1.67,1.67,1.67,1.67-.75,1.67-1.67-.75-1.67-1.67-1.67Z" fill="#253238"/>
          </g>
          <g>
            <path d="M332.13,109.33c0,.77,.63,1.4,1.4,1.4s1.4-.63,1.4-1.4-.63-1.4-1.4-1.4-1.4,.63-1.4,1.4Z" fill="#fff080"/>
            <path d="M333.53,111.16c-1.01,0-1.83-.82-1.83-1.83s.82-1.83,1.83-1.83,1.83,.82,1.83,1.83-.82,1.83-1.83,1.83Zm0-2.8c-.53,0-.97,.44-.97,.97s.43,.97,.97,.97,.97-.44,.97-.97-.43-.97-.97-.97Z" fill="#253238"/>
          </g>
          <g>
            <path d="M320.33,122.94c0,3,2.43,5.43,5.43,5.43s5.43-2.43,5.43-5.43-2.43-5.43-5.43-5.43-5.43,2.43-5.43,5.43Z" fill="#fff080"/>
            <path d="M325.76,128.8c-3.23,0-5.86-2.63-5.86-5.86s2.63-5.86,5.86-5.86,5.86,2.63,5.86,5.86-2.63,5.86-5.86,5.86Zm0-10.86c-2.76,0-5,2.24-5,5s2.24,5,5,5,5-2.24,5-5-2.24-5-5-5Z" fill="#253238"/>
          </g>
          <g>
            <path d="M443.19,79.59h-58.09V28.86c0-1.88,.94-3.64,2.52-4.67,5.42-3.56,17.4-9.9,32.69-7.91,9.22,1.2,16.18,4.97,20.44,7.89,1.53,1.05,2.45,2.77,2.45,4.63v50.8Z" fill="#9dddb6"/>
            <path d="M443.78,80.19h-59.27V28.86c0-2.09,1.04-4.02,2.78-5.17,5.84-3.84,17.91-9.98,33.09-8,7.3,.95,14.46,3.71,20.7,7.99,1.69,1.16,2.71,3.07,2.71,5.12v51.39Zm-58.09-1.18h56.9V28.79c0-1.65-.82-3.2-2.19-4.14-4.24-2.91-11.19-6.62-20.18-7.79-14.81-1.93-26.59,4.07-32.29,7.82-1.41,.92-2.25,2.49-2.25,4.18v50.14Z" fill="#253238"/>
          </g>
          <path d="M443.19,40.58c-.12,0-.24-.04-.35-.11-26.66-19.49-57.15-3.35-57.46-3.18-.29,.16-.65,.05-.8-.24-.16-.29-.05-.65,.24-.8,.31-.17,31.45-16.67,58.72,3.27,.26,.19,.32,.56,.13,.83-.12,.16-.3,.24-.48,.24Z" fill="#253238"/>
          <g>
            <path d="M405.06,151.08v14.49s5.62,6.02,9.48,24.56l4.09,15.17s4.82-25.04,21.19-46.71c0,0-6.04-12.38-5.71-26.28l.42-18.02-21.19,7.22-8.27,29.57Z" fill="#fff"/>
            <path d="M418.73,207.94l-4.76-17.65c-3.77-18.14-9.28-24.25-9.34-24.31l-.16-.17v-.23s.02-14.65,.02-14.65l8.36-29.87,22.29-7.6-.44,18.87c-.31,13.59,5.6,25.89,5.66,26.01l.16,.33-.22,.29c-16.1,21.3-21.03,46.22-21.08,46.47l-.49,2.52Zm-13.07-42.58c.97,1.15,5.93,7.68,9.46,24.66l3.46,12.83c1.64-6.72,7.33-26.7,20.55-44.33-.95-2.08-5.91-13.59-5.62-26.23l.4-17.17-20.09,6.85-8.17,29.19v14.19Z" fill="#253238"/>
          </g>
          <g>
            <path d="M405.06,151.08v12.32s17.02-.02,20.97-23.79c0,0-6.36,11.42-20.97,11.47Z" fill="#253238"/>
            <path d="M404.47,164v-13.51h.59c14.07-.04,20.39-11.06,20.45-11.17l1.66-2.96-.55,3.35c-3.98,24-21.38,24.29-21.55,24.29h-.59Zm1.19-12.33v11.12c2.9-.23,15.19-2.31,19.28-20.61-2.72,3.35-8.97,9.24-19.28,9.49Z" fill="#253238"/>
          </g>
          <g>
            <rect x="380.15" y="71.62" width="49.82" height="79.46" rx="24.91" ry="24.91" fill="#fff"/>
            <path d="M405.06,151.67c-14.06,0-25.5-11.44-25.5-25.5v-29.64c0-14.06,11.44-25.5,25.5-25.5s25.5,11.44,25.5,25.5v29.64c0,14.06-11.44,25.5-25.5,25.5Zm0-79.46c-13.41,0-24.32,10.91-24.32,24.32v29.64c0,13.41,10.91,24.32,24.32,24.32s24.32-10.91,24.32-24.32v-29.64c0-13.41-10.91-24.32-24.32-24.32Z" fill="#253238"/>
          </g>
          <g>
            <path d="M434.11,132.31c34.39-60.69-1.62-60.69-1.62-60.69-32.12-34.41-45.09-8.73-45.09-8.73-4.57-3.04-8.25-2.91-10.73-2.09-2.12,.7-3.8,2.26-4.85,4.23-8.84,16.51,8.34,36.46,8.34,36.46v-4.96s-.03-5.79,2.57-11.04c0,0,8.46,10.04,37.35,7.5,0,0,.72,12.14,11.08,16.48l3.37,4.82-.42,18.02Z" fill="#fff"/>
            <path d="M433.46,134.65l.47-20.18-3.16-4.52c-9.09-3.91-10.9-13.77-11.22-16.32-24.53,2.04-34.23-4.91-36.65-7.12-2.15,4.85-2.16,9.96-2.16,10.02v6.56l-1.04-1.21c-.17-.2-17.34-20.46-8.41-37.13,1.17-2.19,3.02-3.79,5.19-4.51,2.35-.78,6.08-1.07,10.71,1.82,1.12-1.87,5.17-7.67,12.92-8.78,9.36-1.33,20.34,4.64,32.63,17.77,1.6,.06,9.81,.75,14.18,8.24,6.03,10.34,1.89,28.28-12.3,53.32l-1.16,2.05Zm-12.83-42.3l.04,.61c0,.12,.83,11.83,10.71,15.97l.16,.07,3.58,5.11-.37,15.83c16.17-29.27,15.04-43.36,11.15-50.05-4.4-7.57-13.34-7.67-13.43-7.67h-.26s-.18-.19-.18-.19c-12.08-12.94-22.76-18.86-31.76-17.59-8.46,1.2-12.33,8.64-12.37,8.72l-.3,.59-.55-.37c-4.48-2.99-8.03-2.75-10.22-2.02-1.88,.62-3.49,2.03-4.51,3.95-7.27,13.58,3.68,29.81,7.22,34.48v-3.26c0-.24,0-5.99,2.64-11.3l.4-.8,.58,.69c.08,.1,8.68,9.77,36.85,7.29l.61-.05Z" fill="#253238"/>
          </g>
          <g>
            <ellipse cx="432.48" cy="112.22" rx="11.22" ry="7.02" transform="translate(221.22 505.93) rotate(-76.33)" fill="#fff"/>
            <path d="M430.9,123.85c-.41,0-.81-.05-1.21-.15-4.08-.99-6.14-6.95-4.6-13.28s6.1-10.67,10.19-9.68c2.03,.49,3.61,2.18,4.47,4.76,.82,2.48,.87,5.5,.13,8.52h0c-.73,3.02-2.17,5.69-4.03,7.51-1.56,1.52-3.27,2.32-4.94,2.32Zm3.15-22.07c-3.19,0-6.56,3.74-7.82,8.92-1.38,5.7,.29,11.01,3.73,11.85,1.62,.4,3.41-.27,5.04-1.87,1.71-1.67,3.03-4.14,3.71-6.94h0c.68-2.81,.64-5.6-.11-7.87-.72-2.17-2.01-3.58-3.62-3.98-.31-.08-.62-.11-.94-.11Z" fill="#253238"/>
          </g>
          <g>
            <path d="M482.84,288.86s22.86-10.44,29.68,20c.75,3.36,1.15,6.79,1.31,10.24l3.37,72.82,24.72-23.44s7.38-8.03,1.93-37.24c0,0-8.67-60.04-46.55-53.94,0,0-10.92,1.61-14.45,11.56Z" fill="#ffcb9a"/>
            <path d="M516.66,393.24l-3.42-74.12c-.17-3.71-.59-7.02-1.29-10.13-2.23-9.94-6.4-16.49-12.4-19.47-7.92-3.94-16.38-.16-16.46-.12l-1.27,.58,.47-1.32c3.61-10.17,14.81-11.93,14.92-11.95,8.49-1.37,16.22,.46,22.97,5.42,19,13.96,24.2,48.67,24.25,49.02,5.45,29.15-1.77,37.39-2.08,37.73l-25.69,24.36Zm-25.11-106.71c2.63,0,5.59,.48,8.53,1.93,6.33,3.14,10.72,9.96,13.03,20.27,.71,3.18,1.14,6.56,1.32,10.34l3.31,71.53,23.78-22.55s7.07-8.25,1.75-36.7c-.05-.37-5.19-34.59-23.79-48.26-6.48-4.77-13.91-6.52-22.09-5.2-.11,.02-9.69,1.54-13.48,9.93,1.55-.53,4.34-1.29,7.65-1.29Z" fill="#253238"/>
          </g>
          <g>
            <rect x="269.55" y="411.14" width="199.65" height="7.75" fill="#fff"/>
            <path d="M469.79,419.48h-200.83v-8.93h200.83v8.93Zm-199.65-1.19h198.46v-6.56h-198.46v6.56Z" fill="#253238"/>
          </g>
          <g>
            <path d="M461.2,325.65c-8.43,2.76-20.27,5.61-33.52,7.88-11.66,1.99-22.46,3.19-30.92,3.58-10.66,.48-17.64-.34-18.01-2.51-.66-3.91,20.16-10.72,46.52-15.21,26.36-4.51,48.27-4.99,48.94-1.08,.34,1.94-4.65,4.6-13,7.34Z" fill="#fff"/>
            <path d="M391.05,337.85c-8.21,0-12.54-1.05-12.89-3.14-.84-4.98,23.59-11.91,47.01-15.9,24-4.1,44.48-4.92,48.68-1.94,.54,.38,.85,.83,.94,1.34,.15,.84,.59,3.41-13.4,8h0c-8.81,2.89-20.74,5.7-33.6,7.9-11.18,1.91-22.19,3.18-31,3.59-2.08,.09-4,.14-5.73,.14Zm70.85-21.6c-9.02,0-22.26,1.29-36.54,3.73-30.35,5.17-46.49,11.88-46.04,14.53,.18,1.03,4.03,2.62,17.4,2.01,8.76-.41,19.71-1.68,30.85-3.58,12.8-2.19,24.68-4.98,33.43-7.86,9.61-3.16,12.79-5.57,12.6-6.67-.03-.19-.19-.39-.46-.58-1.52-1.08-5.54-1.59-11.26-1.59Z" fill="#253238"/>
          </g>
          <g>
            <path d="M461.2,325.65c-8.43,2.76-29.41,8.74-64.44,11.46,3.96-3.51,16.56-7.67,31.85-10.29,14.47-2.46,27.14-2.81,32.6-1.17Z" fill="#fff080"/>
            <path d="M395.52,337.64l.95-.85c4.1-3.63,16.98-7.81,32.06-10.39,14.22-2.42,27.09-2.87,32.79-1.16l1.31,.39-1.29,.42c-9.65,3.16-30.86,8.86-64.54,11.48l-1.27,.1Zm55.81-12.58c-6.22,0-14.19,.74-22.65,2.18-13.73,2.35-25.58,6.01-30.51,9.33,31.19-2.53,51.42-7.7,61.46-10.87-2.14-.43-4.98-.64-8.31-.64Z" fill="#253238"/>
          </g>
          <g>
            <path d="M488.22,298.01l-14.69,14.93s-7.71-8.91-19.02-3.37c0,0-14.93,10.35-7.95,14.45,0,0,4.15,2.91,9.18-2.08,1.12-1.11,2.39-2.09,3.84-2.72,2.68-1.16,6.48-1.92,6.9,2.75,.11,1.27-.11,2.55-.53,3.76-1.26,3.6-5.17,12.31-15.53,20.44,0,0-2.17,1.44-1.44,3.85,0,0-10.11,3.85-7.95,7.22,0,0,13.73,1.44,26.25-7.22,0,0,8.91-5.06,14.21-18.78l12.73-2.12c2.74-.46,5.31-1.82,7.01-4.02,1.37-1.77,2.48-4.32,2.53-7.95,.08-5.94-2.72-11.62-7.41-15.27-2.14-1.67-4.85-3.18-8.12-3.87Z" fill="#fff"/>
            <path d="M443.26,357.92c-1.42,0-2.26-.08-2.29-.08l-.28-.03-.15-.24c-.42-.64-.51-1.37-.27-2.1,.89-2.71,6.27-5.09,8.02-5.8-.31-1.97,1-3.44,1.81-3.98,10.27-8.07,14.12-16.78,15.3-20.14,.43-1.23,.6-2.41,.5-3.51-.12-1.37-.56-2.29-1.31-2.74-1.27-.76-3.29-.16-4.76,.48-1.24,.53-2.43,1.38-3.66,2.6-5.32,5.27-9.89,2.17-9.94,2.14-1.33-.78-2.06-1.87-2.11-3.22-.19-5.03,9.64-11.91,10.06-12.2,10.12-4.96,17.52,1.22,19.36,3.01l14.49-14.73,.32,.07c2.95,.62,5.77,1.96,8.36,3.98,4.86,3.78,7.72,9.67,7.64,15.75-.04,3.29-.94,6.09-2.66,8.3-1.73,2.23-4.35,3.73-7.38,4.24l-12.4,2.07c-5.32,13.53-13.98,18.56-14.34,18.77-9.49,6.58-19.82,7.38-24.31,7.38Zm-1.86-1.24c2.09,.14,14.38,.58,25.54-7.15,.13-.08,8.84-5.16,13.99-18.51l.12-.32,13.07-2.18c2.74-.46,5.09-1.8,6.64-3.8,1.56-2.01,2.37-4.56,2.41-7.59,.07-5.71-2.61-11.24-7.19-14.8-2.36-1.84-4.9-3.08-7.56-3.69l-14.91,15.15-.42-.48c-.3-.35-7.56-8.49-18.31-3.23-2.63,1.83-9.61,7.49-9.47,11.13,.04,.93,.55,1.67,1.57,2.27,.19,.13,3.87,2.56,8.46-1.99,1.33-1.32,2.65-2.25,4.02-2.84,2.51-1.08,4.48-1.22,5.84-.41,1.09,.65,1.72,1.88,1.88,3.65,.11,1.26-.08,2.61-.56,4-1.21,3.47-5.17,12.42-15.72,20.71-.11,.08-1.83,1.27-1.24,3.22l.16,.53-.51,.2c-1.93,.74-7.09,3.12-7.8,5.26-.1,.3-.1,.58,.01,.85Z" fill="#253238"/>
          </g>
          <path d="M451.55,351.49c-.16,0-.32,0-.47-.02-1.78-.13-2.5-.99-2.57-1.09-.2-.26-.15-.63,.11-.83,.26-.2,.62-.15,.82,.1,.03,.04,.53,.58,1.84,.65,2.19,.1,7.38-1.14,17.52-10.82,.24-.22,.61-.22,.84,.02,.23,.24,.22,.61-.02,.84-9.54,9.11-15.04,11.16-18.06,11.16Z" fill="#253238"/>
          <path d="M453.26,356.75c-.22,0-.43-.12-.53-.33-.15-.29-.03-.65,.26-.79,9.16-4.6,15.74-10.61,15.8-10.67,.24-.22,.62-.21,.84,.03,.22,.24,.21,.62-.03,.84-.07,.06-6.76,6.18-16.07,10.85-.08,.04-.18,.06-.27,.06Z" fill="#253238"/>
          <path d="M481.48,331.83c-.3,0-.56-.23-.59-.53-1.17-11.65-7.69-17.86-7.76-17.93-.24-.22-.25-.6-.03-.84,.22-.24,.6-.25,.84-.03,.28,.26,6.92,6.55,8.13,18.68,.03,.33-.21,.62-.53,.65-.02,0-.04,0-.06,0Z" fill="#253238"/>
          <g>
            <g>
              <path d="M441.06,398.56c-6.6,0-28.13-.54-28.13-7.44s21.54-7.44,28.13-7.44,28.13,.54,28.13,7.44-21.54,7.44-28.13,7.44Zm-22.86-7.44c2.67,1.23,10.5,2.92,22.86,2.92s20.19-1.69,22.86-2.92c-2.67-1.23-10.5-2.92-22.86-2.92s-20.19,1.69-22.86,2.92Z" fill="#fff"/>
              <path d="M441.06,399.15c-8.64,0-28.73-.78-28.73-8.03s20.09-8.04,28.73-8.04,28.73,.78,28.73,8.04-20.09,8.03-28.73,8.03Zm0-14.88c-13.31,0-27.54,1.8-27.54,6.85s14.23,6.85,27.54,6.85,27.54-1.8,27.54-6.85-14.23-6.85-27.54-6.85Zm0,10.36c-13.15,0-20.71-1.87-23.11-2.97l-1.17-.54,1.17-.54c2.4-1.1,9.96-2.97,23.11-2.97s20.71,1.87,23.11,2.97l1.17,.54-1.17,.54c-2.4,1.1-9.96,2.97-23.11,2.97Zm-21.18-3.51c3.29,1.04,10.24,2.33,21.18,2.33s17.89-1.29,21.17-2.33c-3.28-1.04-10.23-2.33-21.17-2.33s-17.89,1.29-21.18,2.33Z" fill="#253238"/>
            </g>
            <g>
              <path d="M298.8,398.56c-6.6,0-28.13-.54-28.13-7.44s21.53-7.44,28.13-7.44,28.13,.54,28.13,7.44-21.53,7.44-28.13,7.44Zm-22.86-7.44c2.67,1.23,10.5,2.92,22.86,2.92s20.19-1.69,22.86-2.92c-2.67-1.23-10.5-2.92-22.86-2.92s-20.19,1.69-22.86,2.92Z" fill="#fff"/>
              <path d="M298.8,399.15c-8.64,0-28.73-.78-28.73-8.03s20.09-8.04,28.73-8.04,28.73,.78,28.73,8.04-20.09,8.03-28.73,8.03Zm0-14.88c-13.31,0-27.54,1.8-27.54,6.85s14.23,6.85,27.54,6.85,27.54-1.8,27.54-6.85-14.23-6.85-27.54-6.85Zm0,10.36c-13.15,0-20.71-1.87-23.11-2.97l-1.17-.54,1.17-.54c2.39-1.1,9.96-2.97,23.11-2.97s20.71,1.87,23.11,2.97l1.17,.54-1.17,.54c-2.4,1.1-9.96,2.97-23.11,2.97Zm-21.17-3.51c3.28,1.04,10.24,2.33,21.17,2.33s17.89-1.29,21.18-2.33c-3.28-1.04-10.23-2.33-21.18-2.33s-17.89,1.29-21.17,2.33Z" fill="#253238"/>
            </g>
            <g>
              <path d="M319.45,408.92c1.21,1,3.2,1.66,5.47,1.78,14.09,.7,29.6,1.13,46.34,1.07,14.44-.05,27.94,.67,40.36,.05,2.16-.11,4.07-.71,5.3-1.64l36.84-28.87c3.3-2.48,.72-5.9-4.96-6.53-22.06-2.44-49.6-4.41-81.29-4.29-29.61,.11-55.47,2.01-76.46,4.35-5.54,.62-8.16,3.9-5.15,6.38,11.18,9.24,22.36,18.48,33.55,27.71Z" fill="#fff"/>
              <path d="M399.97,412.65c-4.2,0-8.51-.07-12.95-.15-5.1-.09-10.37-.17-15.75-.15-15.44,.04-31.04-.31-46.37-1.07-2.37-.12-4.49-.81-5.82-1.91l-33.55-27.71c-1.25-1.03-1.73-2.28-1.36-3.53,.59-1.97,3.26-3.5,6.82-3.9,25.11-2.79,50.86-4.26,76.52-4.35,27.3-.09,54.66,1.34,81.36,4.29,3.61,.4,6.29,1.95,6.84,3.96,.21,.75,.28,2.23-1.59,3.63l-36.83,28.87c-1.34,1.01-3.39,1.65-5.64,1.76-3.8,.19-7.69,.25-11.68,.25Zm-27.18-1.49c4.86,0,9.63,.08,14.25,.16,8.63,.14,16.79,.28,24.56-.11,2.01-.1,3.83-.65,4.97-1.52l36.83-28.87c.69-.52,1.45-1.35,1.17-2.38-.34-1.26-2.28-2.71-5.83-3.1-26.66-2.94-53.97-4.41-81.22-4.29-25.62,.09-51.32,1.56-76.39,4.34-3.5,.39-5.44,1.82-5.81,3.06-.29,.97,.37,1.78,.98,2.28l33.55,27.71c1.13,.94,3,1.53,5.12,1.64,15.32,.76,30.9,1.13,46.31,1.07,.51,0,1.02,0,1.52,0Z" fill="#253238"/>
            </g>
          </g>
          <g>
            <path d="M442.87,380.25c0,1.48-11.66,2.8-29.62,3.61-11.81,.53-26.35,.84-42.07,.84-23.44,0-44.26-.7-57.34-1.78-9.01-.75-14.35-1.66-14.35-2.67,0-.72,2.67-1.38,7.45-1.98,1.54-.19,3.31-.38,5.28-.55,3.12-.28,6.74-.54,10.79-.76,1.52-.09,3.08-.17,4.71-.25,3.69-.18,7.64-.33,11.84-.46,.57-.01,1.16-.03,1.75-.04,4.65-.13,9.57-.24,14.71-.3,1.06-.01,2.12-.03,3.2-.03h.16c3.66-.04,7.42-.07,11.25-.07h.55c1.79,0,3.56,0,5.32,.01,1.53,.01,3.05,.02,4.54,.03,3.72,.02,7.35,.08,10.85,.15,9.56,.18,18.28,.47,25.69,.87,15.48,.82,25.29,2.03,25.29,3.39Z" fill="#253238"/>
            <path d="M371.18,385.29c-22.77,0-43.69-.65-57.39-1.78-14.89-1.24-14.89-2.46-14.89-3.26s.61-1.65,7.97-2.57c1.68-.21,3.47-.4,5.3-.55,3.17-.29,6.81-.54,10.8-.77,1.52-.09,3.08-.17,4.71-.25,3.28-.16,7.05-.31,11.85-.46l.81-.02c.31,0,.63-.02,.95-.02,4.63-.13,9.58-.24,14.71-.3h1.01c.73-.02,1.46-.04,2.2-.04h.16c3.64-.04,7.43-.07,11.25-.07h.55c1.79,0,3.57,0,5.32,.01l4.54,.03c3.22,.02,6.67,.07,10.86,.15,9.66,.18,18.31,.47,25.71,.87,25.86,1.37,25.86,3.14,25.86,3.99s0,2.84-30.19,4.2c-12.36,.55-26.91,.84-42.1,.84Zm-70.95-5.04c.64,.36,3.24,1.21,13.65,2.08,13.67,1.13,34.55,1.77,57.29,1.77,15.17,0,29.71-.29,42.04-.84,23.37-1.05,27.99-2.53,28.89-3.01-.84-.45-4.93-1.76-24.57-2.8-7.38-.39-16.02-.68-25.67-.87-4.19-.08-7.63-.13-10.85-.15l-4.54-.03c-1.75-.01-3.53-.01-5.31-.01h-.55c-3.82,0-7.6,.02-11.24,.07h-.16c-.73,0-1.46,.01-2.18,.02h-1.01c-5.12,.08-10.07,.18-14.7,.32-.32,0-.64,.02-.95,.02l-.81,.02c-4.79,.15-8.55,.3-11.83,.46-1.63,.08-3.19,.16-4.7,.25-3.99,.22-7.61,.48-10.77,.76-1.82,.16-3.59,.34-5.26,.55-4.81,.6-6.31,1.13-6.78,1.39Z" fill="#253238"/>
          </g>
          <g>
            <path d="M428.48,363.76c-2.79,2.29-8.15,8.37-10.01,11.46-.31,.53-.61,1.08-.89,1.63-.87,1.74-1.6,3.54-2.69,5.15-.46,.67-1.02,1.3-1.64,1.85-11.81,.53-26.35,.84-42.07,.84-23.44,0-44.26-.7-57.34-1.78-2.1-.91-4.99-2.85-6.9-4.65-1.51-1.42-2.4-2.74-1.82-3.39,.64-.56,3.66,1,7.1,2.84,5.46,2.91,11.99,6.51,11.85,3.42-.07-1.6-.45-2.98-1.07-4.18-4.51-8.96-21.68-8.69-19.87-16.29,.99-4.17,15.15,8.23,20.38,12.74,1.33,1.15,2.73,2.27,4.19,3.3,4.28,3.05,9.07,5.3,14.11,5.05,1.67-3.73-1.97-4.19-2.27-5.51-.03-.07-.03-.13-.03-.21,.04-.79,.71-.54,1.79,.17,2.22,1.47,6.2,4.91,9.88,5.17,1.54,.11,4.93-2.42,5.12-3.94,.07-.52-.1-1.03-.29-1.53-.04-.1-.09-.19-.12-.29-1.64-3.93-9.78-7.51-6.39-9.9,3.2-2.26,4.92,6.58,8,9.24,.51,.44,1.07,.9,1.72,.92h.16c1.29-.11,2.87-3.06,2.81-4.35-.18-4-1.13-7.96-1.19-11.94-.07-3.99,.94-8.24,3.94-10.75,1.08-.91,2.93-1.45,3.82-.29,.54,.7,.43,1.66,.27,2.51-.87,4.65-2.13,9.27-2.03,14.02,.07,3.81,1.18,7.82,3.63,10.74,.61,.73,1.3,1.4,2.09,1.98,.56,.4,1.26,.78,1.91,.57,.54-.16,.87-.67,1.16-1.15,.25-.4,.48-.88,.71-1.39,1.22-2.76,2.2-6.6,4.06-6.38,.85,.7-1.4,3.7,.48,6.42,.63,.93,1.76,1.82,3.67,2.57,2.28,.9,4.88-.16,6.58-1.8,.21-.2,.4-.42,.6-.63,1.37-1.56,2.29-3.48,3.26-5.34,2.3-4.4,4.98-8.62,7.99-12.56,2.16-2.82,5.01-5.74,8.63-5.53,4.24,.94-2.08,7.58-3.11,11.37-.15,.51-.28,1.02-.21,1.55,.28,2.09,3.25,2.47,5.25,1.88,9.59-2.87,14.37-13.2,22.05-19.5,6.66-5.46,22.92-13.08,24.51-6.27,1.83,7.88-20.7,13.08-31.77,22.17Z" fill="#fff080"/>
            <path d="M371.18,385.13c-22.76,0-43.68-.65-57.38-1.78l-.13-.03c-2.14-.93-5.09-2.92-7.02-4.73-1.95-1.84-2.57-3.18-1.85-3.99,.81-.71,2.69,.11,7.62,2.75l.59,.31c3.88,2.07,9.18,4.9,10.42,4.12,.07-.04,.24-.15,.22-.62-.06-1.46-.41-2.81-1.02-4-2.08-4.14-7.07-6.29-11.46-8.19-4.87-2.1-9.47-4.08-8.44-8.4,.17-.7,.61-.98,.96-1.09,2.79-.91,11.08,5.79,19.6,13.15l.52,.45c1.42,1.23,2.82,2.33,4.16,3.28,4.91,3.49,9.33,5.1,13.58,4.98,.82-2.06-.22-2.85-1.22-3.62-.54-.41-1.05-.8-1.18-1.37-.04-.06-.04-.21-.04-.31,.03-.52,.26-.74,.45-.83,.48-.24,1.12,.06,2,.64,.43,.29,.93,.64,1.47,1.04,2.26,1.63,5.35,3.86,8.2,4.06,1.36,.09,4.51-2.3,4.67-3.57,.06-.43-.11-.91-.27-1.32-.06-.14-.1-.22-.13-.31-.62-1.47-2.34-3-3.86-4.35-1.85-1.64-3.45-3.06-3.37-4.47,.03-.6,.37-1.12,.99-1.56,.57-.4,1.14-.53,1.71-.39,1.49,.37,2.61,2.58,3.79,4.92,.93,1.85,1.9,3.76,3.03,4.73,.49,.42,.96,.8,1.46,.82h.14c.92-.08,2.43-2.73,2.38-3.9-.08-1.84-.34-3.7-.58-5.51-.29-2.11-.58-4.29-.61-6.45-.05-2.82,.42-8,4.1-11.09,.86-.73,2.02-1.13,2.95-1.04,.62,.07,1.13,.35,1.48,.81,.62,.81,.54,1.84,.35,2.84-.2,1.06-.42,2.12-.63,3.18-.72,3.51-1.47,7.13-1.39,10.76,.07,4.13,1.33,7.85,3.53,10.48,.61,.74,1.29,1.38,2.01,1.91,.64,.46,1.15,.63,1.53,.51,.4-.12,.66-.55,.92-.96,.22-.36,.45-.81,.68-1.34,.26-.58,.51-1.22,.75-1.85,1.01-2.57,1.95-4.99,3.74-4.79h.12s.1,.09,.1,.09c.54,.44,.36,1.22,.16,2.13-.29,1.28-.64,2.87,.41,4.37,.64,.95,1.81,1.76,3.48,2.42,2.28,.9,4.73-.36,6.13-1.71,.21-.2,.39-.4,.57-.61,1.18-1.35,2.04-3.02,2.88-4.63l.32-.62c2.32-4.44,5.03-8.69,8.03-12.62,1.96-2.56,4.98-5.94,9-5.7,.88,.19,1.43,.58,1.68,1.18,.65,1.5-.75,3.89-2.25,6.42-.9,1.53-1.83,3.11-2.17,4.32-.14,.5-.26,.94-.2,1.38,.07,.5,.34,.91,.8,1.21,.92,.59,2.52,.72,3.9,.31,5.99-1.79,10.02-6.5,14.28-11.49,2.36-2.77,4.81-5.63,7.62-7.93,5.65-4.63,17.6-10.48,22.73-8.73,1.33,.45,2.16,1.36,2.47,2.7,1.19,5.1-6.66,8.9-15.74,13.3-5.82,2.82-11.84,5.74-16.17,9.3-2.84,2.34-8.13,8.39-9.92,11.35-.31,.52-.6,1.06-.87,1.6-.22,.45-.44,.91-.66,1.37-.61,1.28-1.23,2.61-2.05,3.82-.47,.69-1.05,1.34-1.71,1.93l-.11,.1h-.15c-12.35,.56-26.91,.85-42.09,.85Zm-57.24-2.62c13.68,1.12,34.53,1.77,57.24,1.77,15.11,0,29.59-.29,41.9-.83,.56-.52,1.05-1.08,1.46-1.67,.78-1.16,1.37-2.39,1.99-3.71,.22-.46,.44-.93,.67-1.39,.29-.56,.58-1.12,.9-1.66,1.83-3.03,7.21-9.19,10.11-11.57h0c4.41-3.62,10.48-6.56,16.34-9.41,8.39-4.06,16.31-7.9,15.28-12.34-.24-1.04-.87-1.73-1.91-2.08-4.69-1.59-16.34,4.02-21.91,8.59-2.75,2.25-5.17,5.09-7.51,7.82-4.15,4.86-8.45,9.89-14.69,11.75-1.35,.4-3.3,.44-4.61-.41-.68-.44-1.09-1.07-1.19-1.82-.08-.6,.06-1.16,.23-1.72,.36-1.31,1.32-2.95,2.25-4.52,1.25-2.13,2.68-4.54,2.2-5.64-.14-.33-.48-.55-1.02-.67-3.53-.19-6.36,2.97-8.2,5.37-2.97,3.9-5.65,8.1-7.95,12.5l-.32,.61c-.86,1.66-1.74,3.38-3,4.81-.2,.23-.4,.45-.62,.66-1.59,1.52-4.38,2.93-7.04,1.89-1.83-.72-3.14-1.64-3.87-2.73-1.26-1.81-.82-3.76-.53-5.04,.09-.39,.21-.96,.18-1.19-1.05,.12-1.91,2.31-2.67,4.25-.25,.64-.5,1.28-.77,1.88-.25,.57-.49,1.04-.73,1.44-.31,.5-.7,1.13-1.4,1.33-.98,.3-1.96-.4-2.28-.64-.78-.57-1.51-1.26-2.17-2.05-2.33-2.77-3.65-6.68-3.73-11.01-.08-3.72,.68-7.39,1.41-10.95,.22-1.05,.43-2.11,.63-3.16,.15-.81,.23-1.62-.19-2.17-.21-.28-.52-.44-.9-.48-.7-.07-1.62,.26-2.31,.84-3.41,2.86-3.84,7.75-3.79,10.42,.03,2.11,.32,4.27,.6,6.35,.25,1.82,.5,3.71,.59,5.58,.06,1.38-1.55,4.65-3.2,4.79h-.19c-.85-.03-1.54-.63-2-1.02-1.26-1.08-2.26-3.07-3.23-5-1.04-2.06-2.12-4.19-3.23-4.47-.32-.08-.65,0-1.01,.26-.41,.29-.61,.59-.63,.91-.05,.99,1.54,2.41,3.09,3.78,1.67,1.48,3.39,3.01,4.09,4.69,.03,.09,.06,.14,.08,.2l.04,.1c.2,.51,.4,1.11,.32,1.74-.23,1.83-3.9,4.43-5.58,4.32-3.09-.22-6.3-2.53-8.64-4.22-.54-.39-1.02-.74-1.44-1.02-.71-.46-1-.57-1.12-.58,0,.02,0,.04,0,.08,.08,.36,.47,.66,.89,.97,1.06,.81,2.66,2.04,1.38,4.9l-.11,.24h-.26c-4.51,.24-9.21-1.43-14.38-5.11-1.36-.96-2.78-2.08-4.22-3.33l-.52-.45c-4.39-3.79-16.06-13.85-18.78-12.99-.14,.04-.31,.14-.38,.47-.86,3.62,3.02,5.3,7.94,7.42,4.53,1.95,9.67,4.17,11.89,8.58,.67,1.3,1.05,2.77,1.11,4.35,.04,.8-.32,1.19-.62,1.38-1.54,.97-5.47-.99-11.28-4.09l-.59-.31c-1.95-1.04-6-3.21-6.63-2.89-.21,.25,.24,1.25,1.84,2.75,1.85,1.74,4.66,3.64,6.71,4.54Z" fill="#253238"/>
          </g>
          <g>
            <path d="M153.99,369.76h110.54c1.21,0,2.19,.98,2.19,2.19v8.74c0,21.08-17.12,38.2-38.2,38.2h-38.52c-21.08,0-38.2-17.12-38.2-38.2v-8.74c0-1.21,.98-2.19,2.19-2.19Z" fill="#fff"/>
            <path d="M228.51,419.48h-38.52c-21.39,0-38.79-17.4-38.79-38.79v-8.74c0-1.53,1.25-2.78,2.78-2.78h110.54c1.53,0,2.78,1.25,2.78,2.78v8.74c0,21.39-17.4,38.79-38.79,38.79Zm-74.53-49.13c-.88,0-1.59,.71-1.59,1.59v8.74c0,20.74,16.87,37.6,37.61,37.6h38.52c20.74,0,37.6-16.87,37.6-37.6v-8.74c0-.88-.71-1.59-1.59-1.59h-110.54Z" fill="#253238"/>
          </g>
          <g>
            <path d="M159.82,369.76s4.19-19.47,28.79-7.95c0,0,13.61-1.88,16.49,7.95h-45.27Z" fill="#9dddb6"/>
            <path d="M205.88,370.35h-46.8l.15-.72c.06-.29,1.62-7.2,8.17-10.45,5.45-2.7,12.61-2.03,21.3,2.01,1.65-.18,14.15-1.18,16.96,8.4l.22,.76Zm-45.28-1.19h43.67c-3.17-8.38-15.46-6.79-15.58-6.78l-.17,.02-.16-.07c-8.41-3.94-15.28-4.64-20.42-2.09-4.86,2.41-6.76,7.12-7.33,8.92Z" fill="#253238"/>
          </g>
          <g>
            <rect x="538.41" y="365.97" width="11.36" height="12.82" fill="#253238"/>
            <path d="M550.36,379.38h-12.55v-14.01h12.55v14.01Zm-11.36-1.19h10.18v-11.63h-10.18v11.63Z" fill="#253238"/>
          </g>
          <g>
            <path d="M542.91,344.97h1.13c1.68,0,3.05,1.37,3.05,3.05v4.18h-7.22v-4.18c0-1.68,1.37-3.05,3.05-3.05Z" fill="#253238"/>
            <path d="M547.67,352.78h-8.41v-4.77c0-2.01,1.63-3.64,3.64-3.64h1.13c2.01,0,3.64,1.63,3.64,3.64v4.77Zm-7.23-1.19h6.04v-3.58c0-1.36-1.1-2.46-2.46-2.46h-1.13c-1.36,0-2.46,1.1-2.46,2.46v3.58Z" fill="#253238"/>
          </g>
          <g>
            <path d="M542.1,373.32h3.98c5.95,0,10.78,4.83,10.78,10.78v34.78h-25.55v-34.78c0-5.95,4.83-10.78,10.78-10.78Z" fill="#9dddb6"/>
            <path d="M557.46,419.48h-26.73v-35.38c0-6.27,5.1-11.38,11.38-11.38h3.98c6.27,0,11.38,5.1,11.38,11.38v35.38Zm-25.55-1.19h24.36v-34.19c0-5.62-4.57-10.19-10.19-10.19h-3.98c-5.62,0-10.19,4.57-10.19,10.19v34.19Z" fill="#253238"/>
          </g>
          <g>
            <ellipse cx="543.23" cy="359.85" rx="11.92" ry="9.91" fill="#9dddb6"/>
            <path d="M543.23,370.35c-6.9,0-12.51-4.71-12.51-10.5s5.61-10.5,12.51-10.5,12.51,4.71,12.51,10.5-5.61,10.5-12.51,10.5Zm0-19.81c-6.25,0-11.33,4.18-11.33,9.31s5.08,9.31,11.33,9.31,11.33-4.18,11.33-9.31-5.08-9.31-11.33-9.31Z" fill="#253238"/>
          </g>
          <g>
            <rect x="504.44" y="365.97" width="11.36" height="12.82" fill="#253238"/>
            <path d="M516.4,379.38h-12.55v-14.01h12.55v14.01Zm-11.36-1.19h10.18v-11.63h-10.18v11.63Z" fill="#253238"/>
          </g>
          <g>
            <path d="M508.94,344.97h1.13c1.68,0,3.05,1.37,3.05,3.05v4.18h-7.22v-4.18c0-1.68,1.37-3.05,3.05-3.05Z" fill="#253238"/>
            <path d="M513.71,352.78h-8.41v-4.77c0-2.01,1.63-3.64,3.64-3.64h1.12c2.01,0,3.64,1.63,3.64,3.64v4.77Zm-7.22-1.19h6.04v-3.58c0-1.36-1.1-2.46-2.46-2.46h-1.12c-1.36,0-2.46,1.1-2.46,2.46v3.58Z" fill="#253238"/>
          </g>
          <g>
            <path d="M508.14,373.32h3.98c5.95,0,10.78,4.83,10.78,10.78v34.78h-25.55v-34.78c0-5.95,4.83-10.78,10.78-10.78Z" fill="#fff080"/>
            <path d="M523.33,419.31h-26.4v-35.21c0-6.18,5.03-11.21,11.21-11.21h3.98c6.18,0,11.21,5.03,11.21,11.21v35.21Zm-25.55-.86h24.69v-34.35c0-5.71-4.64-10.35-10.35-10.35h-3.98c-5.71,0-10.35,4.64-10.35,10.35v34.35Z" fill="#253238"/>
          </g>
          <g>
            <ellipse cx="509.27" cy="359.85" rx="11.92" ry="9.91" fill="#fff080"/>
            <path d="M509.27,370.19c-6.81,0-12.35-4.64-12.35-10.33s5.54-10.33,12.35-10.33,12.35,4.64,12.35,10.33-5.54,10.33-12.35,10.33Zm0-19.81c-6.34,0-11.49,4.25-11.49,9.48s5.15,9.48,11.49,9.48,11.49-4.25,11.49-9.48-5.15-9.48-11.49-9.48Z" fill="#253238"/>
          </g>
          <g>
            <rect x="116.55" y="418.88" width="632.66" height="24.69" fill="#fff"/>
            <path d="M749.8,444.16H115.96v-25.87H749.8v25.87Zm-632.66-1.19H748.62v-23.5H117.14v23.5Z" fill="#253238"/>
          </g>
          <g>
            <path d="M418.94,107.85s-4.18-2.98-7.98,0" fill="#fff"/>
            <path d="M410.97,108.44c-.18,0-.35-.08-.47-.23-.2-.26-.16-.63,.1-.83,4.1-3.21,8.64-.05,8.69-.02,.27,.19,.33,.56,.14,.82-.19,.27-.56,.33-.83,.14-.16-.11-3.87-2.68-7.27-.02-.11,.08-.24,.13-.37,.13Z" fill="#253238"/>
          </g>
          <g>
            <path d="M391.8,106.95s-4.18-2.98-7.98,0" fill="#fff"/>
            <path d="M383.82,107.54c-.18,0-.35-.08-.47-.23-.2-.26-.16-.63,.1-.83,4.1-3.21,8.64-.05,8.69-.02,.27,.19,.33,.56,.14,.82-.19,.27-.56,.33-.83,.14-.16-.11-3.88-2.68-7.27-.02-.11,.08-.24,.13-.37,.13Z" fill="#253238"/>
          </g>
          <g>
            <ellipse cx="413.87" cy="114.69" rx="1.98" ry="3.28" fill="#253238"/>
            <path d="M413.87,118.57c-1.44,0-2.57-1.7-2.57-3.88s1.13-3.88,2.57-3.88,2.57,1.7,2.57,3.88-1.13,3.88-2.57,3.88Zm0-6.57c-.65,0-1.38,1.11-1.38,2.69s.73,2.69,1.38,2.69,1.38-1.11,1.38-2.69-.73-2.69-1.38-2.69Z" fill="#253238"/>
          </g>
          <g>
            <ellipse cx="389.72" cy="114.1" rx="1.98" ry="3.28" fill="#253238"/>
            <path d="M389.72,117.98c-1.44,0-2.57-1.7-2.57-3.88s1.13-3.88,2.57-3.88,2.57,1.7,2.57,3.88-1.13,3.88-2.57,3.88Zm0-6.57c-.65,0-1.38,1.11-1.38,2.69s.73,2.69,1.38,2.69,1.38-1.11,1.38-2.69-.73-2.69-1.38-2.69Z" fill="#253238"/>
          </g>
          <g>
            <path d="M401.13,114.99s-1.18,7.21-4.91,10.71c-.63,.59-.47,1.65,.32,2.01,1.62,.73,4.19,1.26,6.58-1" fill="#fff"/>
            <path d="M399.25,128.92c-.96,0-1.95-.23-2.95-.68-.55-.25-.93-.75-1.03-1.35-.1-.6,.11-1.21,.55-1.63,3.54-3.31,4.72-10.3,4.73-10.37,.05-.32,.36-.54,.68-.49,.32,.05,.54,.36,.49,.68-.05,.3-1.25,7.45-5.09,11.04-.16,.15-.23,.36-.2,.57,.03,.21,.16,.37,.35,.46,1.54,.7,3.81,1.11,5.93-.89,.24-.22,.61-.21,.84,.02,.22,.24,.21,.61-.02,.84-1.25,1.18-2.72,1.79-4.28,1.79Z" fill="#253238"/>
          </g>
          <g>
            <path d="M409.79,132.67s-4.95,7.16-13.37,2.54" fill="#fff"/>
            <path d="M401.91,137.35c-1.7,0-3.64-.44-5.78-1.62-.29-.16-.39-.52-.23-.8,.16-.29,.51-.39,.8-.23,7.83,4.3,12.41-2.09,12.6-2.36,.18-.27,.55-.34,.82-.15,.27,.19,.34,.55,.15,.82-.04,.06-3.08,4.35-8.36,4.35Z" fill="#253238"/>
          </g>
          <ellipse cx="413.87" cy="114.69" rx=".42" ry=".7" fill="#fff"/>
          <ellipse cx="389.72" cy="114.1" rx=".42" ry=".7" fill="#fff"/>
        </g>
        <path d="M395.83,72.21c-.08,0-.15-.01-.22-.04-6.92-2.84-8.71-8.86-8.78-9.12-.09-.31,.09-.64,.41-.73,.32-.09,.64,.09,.73,.41,.02,.06,1.72,5.73,8.09,8.35,.3,.12,.45,.47,.32,.77-.09,.23-.32,.37-.55,.37Z" fill="#253238"/>
        <path d="M436.44,86.85c-.17,0-.34-.07-.46-.22-6.42-7.84-4.16-14.9-4.06-15.2,.1-.31,.44-.48,.75-.37,.31,.1,.48,.44,.38,.75-.02,.07-2.13,6.76,3.85,14.07,.21,.25,.17,.63-.08,.83-.11,.09-.24,.13-.38,.13Z" fill="#253238"/>
      </g>
    </g>
  </g>
</svg>