<svg xmlns="http://www.w3.org/2000/svg" id="a" width="865.76" height="682.89" viewBox="0 0 865.76 682.89">
  <g>
    <circle cx="645.45" cy="149.14" r="18.16" fill="#002346"/>
    <path d="M627.34,143.51c3.1-9.99,13.76-15.59,23.75-12.48s15.59,13.76,12.48,23.75c-3.1,9.99-13.76,15.59-23.75,12.48-9.99-3.11-15.59-13.76-12.48-23.75Zm34.68,10.78c2.84-9.14-2.28-18.88-11.42-21.72-9.14-2.84-18.88,2.28-21.72,11.42s2.28,18.88,11.42,21.72c9.14,2.84,18.88-2.28,21.72-11.42Z" fill="#002346"/>
  </g>
  <g>
    <circle cx="627.45" cy="161.58" r="18.16" transform="translate(203 651.11) rotate(-63.51)" fill="#f69074"/>
    <path d="M609.34,155.95c3.1-9.99,13.76-15.59,23.75-12.48,9.99,3.11,15.59,13.76,12.48,23.75-3.11,9.99-13.76,15.59-23.75,12.48-9.99-3.11-15.59-13.76-12.48-23.75Zm34.68,10.78c2.84-9.14-2.28-18.88-11.42-21.72-9.14-2.84-18.88,2.28-21.72,11.42-2.84,9.14,2.28,18.88,11.42,21.72s18.88-2.28,21.72-11.42Z" fill="#002346"/>
  </g>
  <g>
    <g opacity=".1">
      <path d="M626.81,186.44c-2.89,3.82-7.68,6-12.37,6.41-.67,.05-1.33,.07-2,.06,5.28-.89,10.24-3.12,14.41-6.47h-.04Z"/>
    </g>
    <g opacity=".1">
      <path d="M626.87,197.73c-3.13,2.76-7.57,3.73-11.65,3.62,4-1,7.95-1.83,11.65-3.62Z"/>
    </g>
    <g>
      <polygon points="383.49 390.07 404.62 549.97 779.48 549.97 813.61 390.07 383.49 390.07" fill="#e6e7e8"/>
      <path d="M779.89,550.47H404.18l-21.26-160.9h431.31l-34.34,160.9Zm-374.83-1h374.02l33.92-158.9H384.06l21,158.9Z" fill="#002346"/>
    </g>
    <g>
      <rect x="372.68" y="385.21" width="451.35" height="9.72" fill="#fff"/>
      <path d="M824.53,395.43H372.18v-10.72h452.35v10.72Zm-451.35-1h450.35v-8.72H373.18v8.72Z" fill="#002346"/>
    </g>
    <g>
      <rect x="619.87" y="238" width="163.87" height="113.88" fill="#fff"/>
      <path d="M784.24,352.38h-164.87v-114.88h164.87v114.88Zm-163.87-1h162.87v-112.88h-162.87v112.88Z" fill="#002346"/>
    </g>
    <g>
      <circle cx="701.81" cy="286.61" r="8.33" fill="#e6e7e8"/>
      <path d="M701.81,295.44c-4.87,0-8.83-3.96-8.83-8.83s3.96-8.83,8.83-8.83,8.83,3.96,8.83,8.83-3.96,8.83-8.83,8.83Zm0-16.66c-4.32,0-7.83,3.51-7.83,7.83s3.51,7.83,7.83,7.83,7.83-3.51,7.83-7.83-3.51-7.83-7.83-7.83Z" fill="#002346"/>
    </g>
    <g>
      <path d="M685.12,307.44h37s26.93,45.83-.85,70.83h-37.84s28.1-26.39,1.69-70.83Z" fill="#e6e7e8"/>
      <path d="M721.46,378.77h-39.29l.92-.86c.28-.26,27.49-26.65,1.6-70.21l-.45-.76h38.16l.15,.25c.27,.46,26.82,46.47-.95,71.46l-.14,.13Zm-36.87-1h36.48c25.88-23.53,2.8-66.18,.75-69.83h-35.83c22.99,39.43,3.04,64.92-1.4,69.83Z" fill="#002346"/>
    </g>
    <g>
      <path d="M685.12,307.44h-5.47s27.63,38.88-1.5,70.83h5.25s28.13-23.61,1.72-70.83Z" fill="#fff"/>
      <path d="M683.58,378.77h-6.56l.76-.84c28.52-31.28,1.74-69.82,1.46-70.2l-.56-.79h6.73l.14,.26c26.31,47.04-1.55,71.22-1.83,71.46l-.14,.12Zm-4.31-1h3.94c.98-.88,7.14-6.75,10.49-17.42,3.34-10.63,4.51-28.34-8.88-52.41h-4.24c3.65,5.66,24.32,40.62-1.31,69.83Z" fill="#002346"/>
    </g>
    <g>
      <rect x="661.54" y="378.27" width="80.55" height="6.94" fill="#fff"/>
      <path d="M742.59,385.71h-81.55v-7.94h81.55v7.94Zm-80.55-1h79.55v-5.94h-79.55v5.94Z" fill="#002346"/>
    </g>
    <g>
      <path d="M463.63,434.23c-.86,1.3,2.41,1.15,2.41,1.15l6.1,.07c5.18-22.66-6.34-37.21-6.34-37.21l-7,.92s8.26,2.13,8.76,19.76c0,0,.56,8.53-3.93,15.31Z" fill="#fff"/>
      <path d="M472.54,435.96l-6.5-.08c-.71,.03-2.46,.02-2.93-.8-.11-.19-.24-.59,.11-1.12h0c3.79-5.72,3.91-12.72,3.87-14.53h0v-.49c-.5-16.97-8.32-19.27-8.4-19.29l-2.43-.65,9.77-1.28,.18,.22c.12,.15,11.61,15,6.44,37.63l-.09,.39Zm-6.52-1.07l5.72,.06c4.51-20.43-4.79-34.27-6.17-36.17l-5.04,.66c2.53,1.59,7.15,6.3,7.53,19.47h-.02c.14,1.44,.13,9.37-3.99,15.6h0c-.06,.08-.06,.12-.06,.12,.14,.14,1.13,.28,2.03,.25Z" fill="#002346"/>
    </g>
    <g>
      <path d="M531.23,550.6c-.29-10,.24-59.12,.24-59.12l56.59-16.4,57.24,20s5,0,8.68,55.55" fill="#f69074"/>
      <path d="M653.48,550.66c-3.36-50.65-7.82-54.79-8.27-55.08l-.08-.03-57.09-19.95-56.08,16.25c-.05,4.56-.51,49.31-.24,58.73l-1,.03c-.29-9.9,.24-58.65,.24-59.14v-.37s57.1-16.55,57.1-16.55l57.36,20.04c1.18,.31,5.66,4.98,9.04,56l-1,.07Z" fill="#002346"/>
    </g>
    <g>
      <polygon points="564.17 272.96 547.04 306.1 561.6 288.41 574.44 275.26 569.54 270.65 564.81 270.65 564.17 272.96" fill="#f69074"/>
      <path d="M544.44,310.05l19.27-37.28,.73-2.63h5.31l5.42,5.1-13.2,13.51-17.52,21.29Zm20.76-38.9l-.58,2.04-14.97,28.96,11.57-14.05,12.51-12.82-4.38-4.13h-4.15Z" fill="#002346"/>
    </g>
    <g>
      <path d="M464.91,428.13c-3.92,5-9.4,1.66-9.4,1.66,.62,1.79,.82,3.71,.57,5.59-1,4.66-6.91,2.43-6.91,2.43-1.34,8-8.62,5.29-8.62,5.29-1.66,5-6.65,1.65-6.65,1.65l-23.25-9.13c10-17.45,4-36.56,4-36.56l3.15-.35c2.69-.29,5.3-1.11,7.68-2.41,15.89-8.75,21.94-1.41,21.94-1.41,.23,.19,.47,.38,.69,.58-11.83-2.58-11.87,5.54-11.87,5.54-.74,3.7-2.22,4.44-2.22,4.44-2.22,2.23-.74,3.71-.74,3.71,6.23,4.36,9.65-1.87,10.58-4,.04-.1,.16-.15,.26-.11,.05,.02,.09,.06,.11,.11,1.07,2.75,9.64,6.29,9.64,6.29,16.61,13.38,11.04,16.68,11.04,16.68Z" fill="#f2b3c1"/>
      <path d="M437.25,446.34c-1.69,0-3.27-.96-3.57-1.15l-23.73-9.32,.28-.49c9.78-17.07,4.02-35.98,3.96-36.17l-.18-.57,3.74-.42c2.64-.29,5.17-1.08,7.5-2.35,16.06-8.84,22.3-1.6,22.55-1.29l.1,.07c.18,.15,.37,.3,.54,.46l1.36,1.23-1.79-.39c-4.15-.91-7.25-.58-9.2,.98-2.03,1.62-2.08,4.06-2.08,4.09-.7,3.55-2.03,4.6-2.41,4.83-1.73,1.77-.8,2.86-.69,2.97,1.74,1.21,3.45,1.63,4.99,1.2,2.65-.75,4.23-3.78,4.78-5.05,.07-.16,.2-.29,.37-.37,.17-.07,.36-.07,.53,0,.17,.07,.31,.21,.38,.38,.82,2.1,7.04,5.06,9.37,6.02l.12,.07c10.32,8.31,12.28,12.92,12.11,15.32-.09,1.29-.78,1.92-1.04,2.1-3.08,3.87-7.09,2.95-8.96,2.21,.39,1.54,.48,3.16,.27,4.74-.29,1.34-.94,2.28-1.96,2.83-1.73,.94-4.02,.47-5.06,.17-.49,2.27-1.52,3.88-3.07,4.78-2.13,1.23-4.61,.76-5.62,.48-.51,1.26-1.3,2.08-2.35,2.43-.41,.14-.84,.2-1.25,.2Zm-25.89-10.97l22.82,8.97s2.24,1.47,4.01,.87c.86-.29,1.5-1.06,1.9-2.26l.16-.48,.48,.18s2.97,1.07,5.27-.26c1.41-.82,2.32-2.38,2.7-4.65l.1-.59,.56,.21s2.94,1.08,4.8,.06c.76-.42,1.24-1.12,1.46-2.14,.23-1.76,.04-3.61-.55-5.33l-.45-1.29,1.17,.71c.21,.13,5.16,3.04,8.76-1.54l.13-.12s.6-.42,.66-1.44c.1-1.77-1.3-6-11.69-14.39-1.09-.45-7.79-3.32-9.55-5.99-.78,1.59-2.46,4.31-5.17,5.07-1.84,.52-3.83,.05-5.89-1.4-.08-.07-1.86-1.91,.67-4.46l.13-.09s1.29-.75,1.96-4.1c0-.02,.03-2.83,2.42-4.74,1.89-1.52,4.67-2.02,8.26-1.5-1.93-1.51-8.21-4.83-20.72,2.06-2.45,1.33-5.09,2.17-7.86,2.47l-2.57,.29c.88,3.3,4.74,20.27-3.92,35.88Zm32.96-30.02s0,0,0,.01c0,0,0,0,0-.01Z" fill="#002346"/>
    </g>
    <g>
      <path d="M463.63,434.23l-7.51,1.15c.25-1.88,.05-3.8-.57-5.59,0,0,5.48,3.33,9.4-1.66,0,0,5.57-3.32-11.06-16.62,0,0-8.57-3.54-9.64-6.29-.04-.1-.16-.15-.26-.11-.05,.02-.09,.06-.11,.11-.92,2.08-4.34,8.32-10.58,4,0,0-1.48-1.48,.74-3.71,0,0,1.48-.74,2.22-4.44,0,0,0-8.12,11.87-5.54h0c3.68,.29,7.26,1.29,10.56,2.94,3.23,1.65,5.66,4.54,6.74,8,2,6.25,4.32,17.98-1.8,27.76Z" fill="#f2b3c1"/>
      <path d="M455.55,435.96l.09-.65c.24-1.8,.05-3.65-.55-5.36l-.45-1.29,1.17,.7c.21,.13,5.16,3.04,8.76-1.54l.14-.12s.6-.4,.65-1.45c.09-1.77-1.31-5.99-11.71-14.32-1.08-.45-7.8-3.33-9.56-5.99-.78,1.58-2.47,4.29-5.18,5.05-1.84,.51-3.82,.06-5.88-1.37-.09-.08-1.87-1.91,.67-4.46l.13-.09s1.29-.75,1.96-4.1c0-.02,.02-2.82,2.4-4.74,2.19-1.76,5.57-2.16,10.06-1.19,3.69,.29,7.31,1.29,10.68,2.98,3.33,1.7,5.88,4.72,6.99,8.29,1.99,6.23,4.4,18.17-1.85,28.17l-.12,.19-8.38,1.28Zm.79-5.26c.33,1.33,.45,2.73,.34,4.1l6.66-1.02c1.23-2.01,2.11-4.11,2.7-6.22-.25,.52-.58,.81-.74,.93-3.08,3.87-7.09,2.94-8.96,2.21Zm-12.27-26.09c.27,0,.53,.16,.64,.43,.82,2.1,7.04,5.06,9.37,6.02l.12,.07c10.33,8.26,12.3,12.85,12.13,15.25,0,0,0,.02,0,.03,1.77-7.6,.09-15.24-1.37-19.78-1.03-3.32-3.4-6.13-6.5-7.71-3.25-1.63-6.74-2.6-10.38-2.89-4.24-.92-7.34-.59-9.29,.97-2.01,1.61-2.05,4.05-2.05,4.08-.7,3.55-2.03,4.6-2.41,4.83-1.73,1.77-.8,2.86-.69,2.97,1.74,1.19,3.44,1.61,4.98,1.17,2.65-.75,4.23-3.77,4.79-5.03,.07-.16,.2-.29,.37-.36,.09-.04,.17-.05,.26-.05Zm.27,.8s0,0,0,.01c0,0,0,0,0-.01Z" fill="#002346"/>
    </g>
    <g>
      <path d="M409.19,437.67l-4.45-.74c13.64-20.28,3.91-41.54,3.51-42.32l6.12,1.59s8.12,26.19-5.18,41.47Z" fill="#fff"/>
      <path d="M409.39,438.21l-5.49-.91,.43-.64c13.75-20.45,3.59-41.61,3.48-41.81l-.51-.99,7.47,1.94,.08,.27c.08,.26,8.05,26.63-5.28,41.95l-.18,.21Zm-3.8-1.65l3.41,.57c12.01-14.11,5.76-37.75,4.98-40.52l-4.85-1.26c1.81,4.4,8.26,23.01-3.54,41.21Z" fill="#002346"/>
    </g>
    <g>
      <polyline points="352.43 550.5 354.81 497.77 357.62 495.23 352.9 453.23 333.6 513.83 333.6 549.94" fill="#fbe493"/>
      <polygon points="352.93 550.52 351.93 550.48 354.32 497.54 357.1 495.03 352.67 455.62 334.1 513.91 334.1 549.94 333.1 549.94 333.13 513.68 353.14 450.84 358.15 495.43 355.3 498 352.93 550.52" fill="#002346"/>
    </g>
    <g>
      <path d="M352.43,453.07s-5,34.92,5,49.88c0,0,5,1.66,6.65-6.65,0,0-7.9-48.57-6.44-61.69l-6.16-1.66,.95,20.12Z" fill="#f69074"/>
      <path d="M358.46,503.59c-.69,0-1.15-.15-1.19-.16l-.16-.05-.1-.14c-9.9-14.81-5.37-48.18-5.09-50.18l-.98-20.76,7.24,1.95-.05,.43c-1.44,12.9,6.36,61.07,6.44,61.55v.09s0,.09,0,.09c-.65,3.29-1.9,5.48-3.7,6.53-.89,.52-1.75,.65-2.41,.65Zm-.72-1.07c.39,.08,1.48,.22,2.64-.46,1.52-.9,2.59-2.84,3.19-5.77-.48-2.97-7.71-47.87-6.47-61.31l-5.09-1.37,.92,19.48v.05c-.06,.35-4.83,34.66,4.81,49.37Z" fill="#002346"/>
    </g>
    <g>
      <path d="M306.82,251.24l.59-7.68c.08-1.03-.37-2.02-1.2-2.64l-5.32-4-1.32-7.38c6.94,3,10.08,7.13,11.48,10,.67,1.42,1.05,2.96,1.12,4.53,.3,4.07,3,8.16,4.48,10.05,.11,.15,.07,.35-.07,.46-.09,.07-.21,.08-.32,.04-3.63-1.55-9.44-3.38-9.44-3.38Z" fill="#fff"/>
      <path d="M316.39,255.14c-.1,0-.21-.02-.31-.06-3.58-1.53-9.35-3.35-9.4-3.37l-.38-.12,.62-8.08c.07-.86-.31-1.68-1-2.2l-5.48-4.12-1.52-8.49,.85,.37c7.05,3.05,10.27,7.25,11.73,10.24,.7,1.5,1.09,3.08,1.17,4.73,.32,4.28,3.43,8.56,4.37,9.76,.28,.38,.2,.9-.17,1.17-.15,.1-.32,.16-.49,.16Zm-9.03-4.26c1.27,.41,5.46,1.78,8.52,3.03-1.25-1.7-3.89-5.72-4.19-9.81-.07-1.52-.43-2.99-1.07-4.36-1.32-2.71-4.19-6.48-10.37-9.37l1.12,6.25,5.16,3.88c.97,.72,1.49,1.87,1.4,3.08l-.56,7.29Z" fill="#002346"/>
    </g>
    <g>
      <path d="M332.48,193.7s-2.08,.72-1,5.34c0,0,.78,3.5-1.2,4.42-.42,.19-.6,.68-.41,1.1,.01,.03,.03,.05,.04,.08,1.23,1.81,.92,4.25-.73,5.69,0,0-3.33,1.66-1.66,6.65,0,0,3.33,15-23.28,5,0,0-5,5-3.32,15l-13.31-10s-5-5-15-8.31c0,0-11.63-3.33-13.3-6.65l.45-3.61,.87-6.85v-.3c2.45,1,5.34,0,7.5-7.35-2.54-2.77-3.91-6.41-3.84-10.16,0-7.35,4.84-13.29,10.81-13.29,19.42-21.44,4.85-33.16-1.55-36.9-.32-.2-.42-.61-.23-.93,.13-.21,.37-.34,.62-.33,4.4,.2,12.74,.89,18.62,3.23,0,0,9.05,4.53,15,4.25h.44l.61-.08c1.66-.24,3.35,.29,4.58,1.43h0l.69,.62,.46,.41,.74,.65,1,.86c.31,.24,.62,.5,.93,.75l.66,.52c.51,.4,1.02,.78,1.53,1.14l.71,.51c.25,.17,.5,.34,.76,.49s.48,.32,.72,.46,.72,.42,1.06,.59c.38,.2,.77,.38,1.17,.54,.16,.07,.32,.13,.48,.18h0v.07c.35,.51,2,3.15,3.28,9,1.21,5.75,1.79,11.61,1.74,17.49,0,0,1.67,5,8.32,10,.03-.02,5.01,3.3-4.96,8.29Z" fill="#f2b3c1"/>
      <path d="M301.61,238.11l-14.29-10.74c-.1-.09-5.1-5.01-14.86-8.24-.46-.13-11.84-3.42-13.58-6.9l-.07-.13,1.34-10.61v-.97s.67,.28,.67,.28c.96,.39,1.82,.39,2.64,0,1.62-.78,3-3.05,4.13-6.76-2.52-2.84-3.86-6.49-3.78-10.29,0-7.5,4.95-13.62,11.08-13.77,7.17-7.96,10.29-15.33,9.28-21.9-1.14-7.41-7.29-12.01-10.85-14.09-.27-.17-.46-.42-.54-.73s-.03-.62,.14-.89c.22-.37,.63-.58,1.06-.56,4.46,.2,12.83,.9,18.78,3.26,.13,.06,9.05,4.5,14.8,4.22h.46s.55-.08,.55-.08c1.81-.26,3.63,.31,4.98,1.56l2.88,2.53c.19,.15,.4,.32,.61,.49l.97,.77c.5,.4,1,.77,1.51,1.12l.71,.51c.23,.16,.47,.32,.72,.46,.15,.08,.28,.17,.41,.26,.1,.07,.2,.14,.31,.2,.26,.15,.71,.41,1.03,.57,.37,.19,.75,.37,1.13,.52,.15,.07,.3,.12,.44,.17l.35,.11v.28c.48,.74,2.05,3.46,3.27,9.04,1.21,5.75,1.8,11.64,1.75,17.51,.24,.62,2.11,5.16,8.09,9.67,.35,.2,1.52,1.17,1.5,2.73-.03,2.11-2.22,4.27-6.5,6.42l-.05,.02c-.07,.03-1.62,.78-.69,4.77,.04,.16,.84,3.9-1.47,4.98-.09,.04-.15,.11-.18,.19s-.03,.18,0,.26c1.37,2.02,1.02,4.74-.81,6.35l-.1,.07c-.12,.06-2.92,1.56-1.41,6.05,.05,.23,.94,4.41-2.11,7.06-3.56,3.09-10.8,2.65-21.49-1.33-.9,1.08-4.4,5.9-2.98,14.34l.2,1.21Zm-41.79-26.19c1.5,2.54,9.8,5.38,12.93,6.27,10.02,3.31,15,8.23,15.21,8.43l12.3,9.24c-1.14-9.34,3.43-14.04,3.63-14.24l.22-.22,.3,.11c13.08,4.91,18.53,3.6,20.81,1.63,2.61-2.26,1.83-6.03,1.82-6.07-1.64-4.88,1.35-6.87,1.85-7.16,1.42-1.28,1.69-3.42,.61-5.01l-.08-.16c-.15-.32-.16-.68-.03-1.01,.12-.33,.37-.59,.69-.74,1.57-.73,.93-3.83,.92-3.87-1.1-4.69,.94-5.75,1.28-5.89,4.82-2.41,5.89-4.31,5.94-5.48,.04-.88-.5-1.5-.81-1.77l-.26-.2c-6.7-5.03-8.42-10.03-8.49-10.24l-.03-.08v-.08c.05-5.83-.53-11.68-1.73-17.38-1.23-5.64-2.8-8.22-3.17-8.78-.1-.04-.2-.08-.3-.12-.4-.16-.81-.35-1.2-.56-.33-.16-.8-.44-1.05-.59-.15-.09-.26-.16-.38-.24-.11-.08-.23-.16-.36-.23-.27-.16-.53-.33-.79-.51l-.72-.52c-.52-.36-1.03-.75-1.55-1.15l-.98-.78c-.2-.17-.41-.33-.61-.49l-2.92-2.56c-1.14-1.05-2.66-1.52-4.18-1.31l-.62,.08h-.5c-5.99,.25-14.85-4.11-15.22-4.3-5.78-2.3-14.02-2.98-18.42-3.18-.07,0-.14,.03-.17,.09-.05,.08-.01,.21,.06,.26,3.71,2.17,10.12,6.97,11.32,14.78,1.07,6.92-2.18,14.61-9.66,22.87l-.15,.16h-.22c-5.69,0-10.32,5.74-10.32,12.8-.07,3.66,1.25,7.14,3.71,9.83l.19,.2-.08,.27c-1.22,4.14-2.81,6.71-4.72,7.63-.88,.42-1.82,.51-2.81,.24l-1.26,10Z" fill="#002346"/>
    </g>
    <path d="M310.86,138.83s.94,.94,2.37,2.24c-1.23-1.14-2.92-1.67-4.58-1.43,.79-.11,1.54-.39,2.21-.81Z" fill="#f9b499"/>
    <g>
      <path d="M350.77,497.96c1.66,18.29-36.58,18.29-36.58,18.29-66.51,5-93.11-16.63-93.11-16.63-3.32-49.87,6.65-88.12,6.65-88.12l-5-28.26c-6.65-38.24-10-79.81-10-79.81-1.66-39.9,18.29-56.53,18.29-56.53,5-6.65,16.62-23.27,16.62-23.27,3.33-11.64,6.65-6.65,6.65-6.65-.56,1.66-1.25,3.27-2.06,4.82-.63,1.14-.36,2.57,.65,3.39,7.93,6.47,38.56,31.14,53,38.34,39.9,31.59,41.56,84.79,41.56,84.79l5,104.75c-2.99,14.77-3.55,29.94-1.67,44.89Z" fill="#f69074"/>
      <path d="M294.98,517.49c-52.05,0-73.97-17.29-74.21-17.48l-.17-.14v-.22c-3.22-48.09,6.05-85.88,6.62-88.17l-4.98-28.15c-6.58-37.83-9.97-79.44-10.01-79.86-1.61-38.76,17.33-55.96,18.42-56.91,4.79-6.38,15.71-21.98,16.53-23.14,1.46-5.07,3.09-7.68,4.97-7.97,1.54-.23,2.51,1.2,2.55,1.26l.14,.21-.08,.23c-.57,1.67-1.27,3.32-2.09,4.89-.52,.94-.3,2.1,.52,2.77,6.26,5.11,38.24,30.97,52.91,38.28l.09,.06c39.62,31.37,41.73,84.63,41.75,85.17l5,104.8v.06c-2.99,14.75-3.55,29.8-1.68,44.73v.02c.31,3.44-.72,6.5-3.08,9.08-8.81,9.64-32.97,9.75-33.99,9.75-6.81,.51-13.22,.74-19.21,.74Zm-73.41-18.13c2.38,1.79,29.78,21.12,92.59,16.39,.28,0,24.78-.11,33.29-9.43,2.16-2.37,3.11-5.16,2.83-8.31-1.89-15.02-1.33-30.15,1.66-44.98l-5-104.69c-.02-.54-2.12-53.31-41.33-84.39-14.41-7.2-44.24-31.19-53.05-38.38-1.2-.98-1.52-2.67-.77-4.02,.74-1.43,1.4-2.94,1.93-4.48-.24-.27-.77-.74-1.42-.64-.82,.13-2.44,1.26-4.18,7.34l-.07,.15c-.12,.17-11.68,16.7-16.63,23.28l-.08,.08c-.2,.17-19.74,16.96-18.11,56.13,.03,.4,3.42,41.97,9.99,79.75l5.02,28.37-.03,.11c-.1,.38-9.88,38.63-6.65,87.74Z" fill="#002346"/>
    </g>
    <g>
      <path d="M406.12,436.51c-2.5,3.67-5.47,7.01-8.83,9.91l-59.82-16.59s-48.22-6.65-99.76-83.13c-9.08-13.47-15-34.91-15-34.91-3-12.47-3-22.1-1.53-29.46,3.13-15.72,20.19-24.4,35-18.29,12.71,5.22,27.67,17.49,33,46.08,0,0,9.56,8.7,9.78,18.48l25.27,34.36c1.52,2.09,3.8,3.48,6.35,3.89,3.31,.5,8,1.73,10.64,4.73,1.13,1.27,2.59,2.21,4.21,2.72l63.46,20.62h0c.48,.76,10.89,21.31-2.77,41.59Z" fill="#f69074"/>
      <path d="M397.42,446.97l-.26-.07-59.82-16.59c-.06,0-12.3-1.79-30.68-12.94-16.92-10.26-42.69-30.81-69.36-70.39-9.02-13.38-15.01-34.84-15.07-35.06-2.71-11.26-3.23-21.24-1.54-29.69,1.49-7.48,6.25-13.86,13.06-17.51,7.02-3.76,15.27-4.18,22.62-1.14,12.15,4.99,27.77,17.07,33.27,46.29,1.18,1.1,9.51,9.25,9.81,18.56l25.18,34.23c1.45,1.99,3.59,3.3,6.03,3.69,3.49,.53,8.22,1.8,10.94,4.89,1.07,1.2,2.45,2.09,3.98,2.57l63.64,20.68,.1,.15c.12,.2,11.26,21.29-2.78,42.14h0c-2.52,3.71-5.52,7.08-8.92,10.01l-.2,.17Zm-151.15-184.4c-4.15,0-8.28,1.02-12.04,3.03-6.55,3.5-11.12,9.64-12.55,16.83-1.66,8.3-1.15,18.14,1.53,29.25,.05,.2,6,21.5,14.93,34.75,50.83,75.42,98.93,82.85,99.41,82.91l59.63,16.53c3.25-2.83,6.12-6.07,8.54-9.64h0c13.09-19.43,3.8-39.01,2.84-40.9l-63.27-20.56c-1.71-.54-3.24-1.53-4.43-2.86-2.52-2.87-7.02-4.07-10.34-4.57-2.7-.43-5.07-1.88-6.68-4.09l-25.36-34.49v-.16c-.22-9.45-9.53-18.04-9.62-18.12l-.12-.11-.03-.17c-5.39-28.89-20.75-40.8-32.7-45.71-3.13-1.29-6.43-1.93-9.72-1.93Z" fill="#002346"/>
    </g>
    <g>
      <path d="M306.02,263.32l1.16-12.27,9.37,3.56s12.1,27.8,12.93,36.77c0,0-8.71-16.15-23.46-28.06Z" fill="#002346"/>
      <path d="M330.21,293.76l-1.16-2.16c-.09-.16-8.84-16.2-23.33-27.9l-.21-.17,1.25-13.19,10.18,3.87,.08,.19c.5,1.14,12.15,27.98,12.97,36.92l.23,2.44Zm-23.66-30.67c11.22,9.12,19,20.78,22,25.69-2.22-10.14-11.39-31.53-12.37-33.79l-8.56-3.25-1.07,11.35Z" fill="#002346"/>
    </g>
    <g>
      <path d="M316.25,254.63s16.13,21.88,19.5,47.81l-5.91-11.28c-3.73-12.46-8.27-24.66-13.59-36.53Z" fill="#f69074"/>
      <path d="M336.61,305.15l-7.21-13.76c-3.74-12.48-8.31-24.75-13.6-36.56l-1.91-4.25,2.77,3.75c.16,.22,16.25,22.28,19.59,48.04l.36,2.78Zm-17.58-45.42c4.34,10.2,8.13,20.69,11.29,31.28l4.5,8.57c-2.9-17.23-11.19-32.43-15.79-39.86Z" fill="#002346"/>
    </g>
    <g>
      <path d="M333.6,550.53v-36.7c-72,10.89-107-10.74-107-10.74,0,0,2.81,27.12,6.14,47.08" fill="#fbe493"/>
      <path d="M334.1,550.53h-1v-36.12c-14.13,2.11-26.86,2.95-38.18,2.95-40.66,0-63.17-10.91-67.72-13.36,.53,5.01,3.1,28.48,6.03,46.09l-.99,.16c-3.29-19.75-6.12-46.84-6.14-47.11l-.1-1.01,.86,.53c.35,.21,35.71,21.4,106.66,10.67l.57-.09v37.28Z" fill="#002346"/>
    </g>
    <g>
      <path d="M433,443.67l-.92,.88c-6.32,4.21-5.95-2.06-5.95-2.06-5.94,2.15-4.55-2.14-4.55-2.14-6.32,2.1-6.32-2.1-6.32-2.1-3.15,1.05-4.72,.27-5.5-.78-.74-1.1-.74-2.53,0-3.63,1.26-2.12,4.17-5.99,6.67-4.39,0,0,4.1,1.16,1.71,4.69,0,.06,0,.16,.1,.13,1.26-.66,6.26-2.87,6.26,2.02,0,0,4.68-2.81,4.68,2.81,0,0,5.06-1.43,5.06,1.97-.04,.99-.49,1.93-1.23,2.59Z" fill="#f2b3c1"/>
      <path d="M428.45,446.5c-.48,0-.91-.11-1.29-.32-1.15-.66-1.44-2.12-1.51-3-1.97,.62-3.31,.55-4.09-.2-.57-.55-.65-1.33-.61-1.92-2.15,.59-3.79,.49-4.89-.31-.77-.56-1.08-1.32-1.21-1.86-3.15,.89-4.72-.1-5.49-1.13-.87-1.29-.87-2.93-.01-4.2,.76-1.28,2.8-4.35,5.12-4.9,.77-.18,1.5-.07,2.17,.34,.37,.12,2.05,.73,2.58,2.19,.24,.66,.21,1.37-.09,2.13,1.25-.49,3.15-.99,4.47-.19,.76,.46,1.21,1.26,1.34,2.4,.8-.34,2.14-.71,3.22-.1,.88,.5,1.38,1.53,1.48,3.06,.99-.19,2.95-.42,4.12,.47,.63,.48,.95,1.19,.95,2.11-.05,1.14-.55,2.21-1.38,2.95l-.92,.88c-1.59,1.06-2.91,1.59-3.97,1.59Zm-1.79-4.72l-.04,.74c-.03,.59,.09,2.26,1.04,2.8,.84,.48,2.28,.07,4.15-1.17l.87-.84c.64-.57,1.03-1.39,1.06-2.25,0-.58-.18-1.02-.56-1.3-.99-.75-3.13-.38-3.87-.17l-.62,.17v-.65c0-1.49-.34-2.44-1-2.82-.93-.53-2.43,.13-2.93,.43l-.74,.44v-.87c0-1.17-.31-1.95-.91-2.32-1.09-.66-3.18-.02-4.63,.74l-.26,.14-.31-.17c-.24-.17-.24-.44-.24-.53v-.15l.08-.12c.61-.9,.8-1.69,.57-2.34-.41-1.13-1.98-1.6-2-1.6l-.13-.06c-.45-.29-.93-.37-1.47-.25-1.59,.38-3.38,2.56-4.52,4.47-.64,.96-.64,2.17-.01,3.1,.88,1.18,2.55,1.39,4.94,.59l.65-.22v.68s.02,1.08,.9,1.7c.95,.68,2.6,.65,4.77-.07l.92-.3-.29,.92s-.37,1.21,.21,1.76c.54,.52,1.85,.43,3.71-.24l.7-.25Z" fill="#002346"/>
    </g>
    <g>
      <path d="M533.25,359.53c-6.67,25.93-60.78,35.43-60.78,35.43-8.19,.63-6.67,3.28-6.67,3.28,0,0,11,14,4.41,43.22,0,0,52-9.57,79.7-27.49" fill="#fbe493"/>
      <path d="M469.56,442.09l.17-.74c6.46-28.66-4.21-42.66-4.32-42.8-.19-.33-.36-.96,0-1.63,.7-1.33,3.07-2.16,7.03-2.46,.49-.09,53.82-9.74,60.33-35.06l.97,.25c-6.67,25.94-58.96,35.41-61.18,35.8-4.94,.38-6.03,1.48-6.27,1.94-.18,.34-.05,.6-.05,.6,.07,.08,10.84,14.22,4.63,42.83,6.46-1.26,53.27-10.78,78.78-27.28l.54,.84c-27.47,17.77-79.36,27.47-79.88,27.56l-.74,.14Z" fill="#002346"/>
    </g>
    <g>
      <path d="M583.61,266.95s-54.07,45.18-52.58,80l3.7,23s2.22,33.33,6.66,40c-2.31,4.13-3.21,8.9-2.56,13.59,.6,4.95-.41,9.96-2.88,14.29,0,0-4.18,12.08-6.41,30.6l-5.18,20s82.21,39.25,125.91,3c0,0-7.93-38.29-24-65.44,0,0,37.51-85.77,29.62-123.49,0,0-2.69-19.94-16-33.27,0,0-3.07-15.12-8.94-17.93l-17-2.81-30.34,18.46Z" fill="#fbe493"/>
      <path d="M600.94,507.25c-10.66,0-21.06-1.4-30.11-3.24-25.78-5.23-46.48-15.03-46.68-15.13l-.37-.18,5.28-20.4c2.2-18.29,6.38-30.52,6.42-30.64,2.44-4.29,3.44-9.26,2.86-14.07-.65-4.66,.23-9.49,2.48-13.63-4.35-7.23-6.49-38.63-6.58-39.98l-3.69-22.95c-1.49-34.72,52.21-80.01,52.75-80.46l.06-.04,30.5-18.56,17.32,2.88c5.78,2.77,8.83,16.46,9.18,18.13,13.19,13.3,16.01,33.25,16.04,33.45,7.62,36.44-27.39,118.5-29.56,123.52,15.84,26.9,23.85,64.99,23.93,65.37l.06,.29-.23,.19c-14.1,11.7-32.23,15.44-49.65,15.44Zm-75.99-19.1c2.9,1.34,22.33,10.06,46.1,14.88,23.54,4.78,56.26,6.59,78.67-11.8-.78-3.62-8.77-39.47-23.88-64.99l-.13-.22,.1-.23c.37-.86,37.36-86.06,29.59-123.19-.03-.23-2.83-19.97-15.86-33.02l-.11-.11-.03-.15c-.03-.15-3.06-14.8-8.6-17.55l-16.74-2.77-30.15,18.34c-1.49,1.25-53.82,45.71-52.37,79.57l3.69,22.94c.03,.38,2.27,33.32,6.58,39.8l.17,.25-.15,.27c-2.24,4.01-3.13,8.73-2.5,13.28,.61,5.03-.43,10.21-2.94,14.61,0,.04-4.15,12.17-6.35,30.41l-5.09,19.66Z" fill="#002346"/>
    </g>
    <path d="M627.46,244.49c1.52,2.05,2.7,4.33,3.5,6.75,0,0-25.87,5.34-47.35,28.3l-3,1.48,4.44,5.93s-51.75,31.26-54,56.37c0,0-1.12-20.87,30.53-54.91,.56-3.61,2.48-6.87,5.37-9.11,1.24-.94,1.89-2.46,1.71-4-.32-2.53-.15-6.35,3.08-8.81l13.38-2.5,34-20.74,8.34,1.24Z" fill="#f69074"/>
    <g>
      <path d="M627.46,244.49c1.52,2.05,2.7,4.33,3.5,6.75,0,0-25.87,5.34-47.35,28.3l-3,1.48,4.44,5.93s-51.75,31.26-54,56.37c0,0-1.12-20.87,30.53-54.91,.56-3.61,2.48-6.87,5.37-9.11,1.24-.94,1.89-2.46,1.71-4-.32-2.53-.15-6.35,3.08-8.81l13.38-2.5,34-20.74,8.34,1.24Z" fill="#f69074"/>
      <path d="M531.55,343.37l-1-.02c-.05-.86-.77-21.42,30.56-55.17,.62-3.69,2.58-6.98,5.53-9.28,1.1-.83,1.68-2.19,1.52-3.55-.36-2.81-.08-6.71,3.27-9.26l.09-.07,13.41-2.5,34.08-20.79,8.72,1.3,.12,.17c1.55,2.1,2.75,4.42,3.57,6.89l.18,.53-.55,.11c-.26,.05-25.97,5.58-47.09,28.15l-.14,.11-2.46,1.21,4.41,5.89-.47,.29c-.52,.31-51.56,31.42-53.76,55.99Zm40.4-76.41c-2.88,2.27-3.11,5.75-2.79,8.28,.2,1.71-.53,3.42-1.9,4.46-2.79,2.17-4.63,5.29-5.18,8.79l-.02,.15-.1,.11c-19.32,20.78-26.37,36.72-28.94,45.85,10-21.89,46.44-44.8,51.31-47.8l-4.47-5.97,3.46-1.71c19.6-20.92,43.12-27.31,47-28.25-.75-2.12-1.8-4.11-3.13-5.92l-7.95-1.18-33.92,20.69-13.35,2.5Z" fill="#002346"/>
    </g>
    <g>
      <path d="M564.36,158.07s-13.34,9.63-12.6,31.85c-.87,4.98-4.22,9.17-8.88,11.11,0,0-4.45,3.7,5.92,7.41,0,0,3,.74,1.48,4.44,0,0-3.7,5.19,3.71,4.45,2.72-.53,5.36-1.38,7.88-2.52,.41-.19,.84,.2,.67,.62-.69,1.68-2.73,4.94-8.55,7.06,0,0-3,2.22,.74,5.93,0,0,.82-.74,1.15,5.18,0,0-2.65,11.4,25.13,.88,0,0,5.82,8.6,2,25.71l22.89-11.78,14.6-14.05-1.38-10.36-4.44-54.07-40.74-14.81-9.58,2.96Z" fill="#f2b3c1"/>
      <path d="M582.3,261.1l.23-1.03c3.32-14.85-.76-23.28-1.73-25-12.54,4.71-20.6,5.61-23.96,2.68-1.83-1.6-1.54-3.76-1.46-4.2-.17-2.97-.46-4.09-.62-4.51l-.05,.04-.33-.33c-1.43-1.42-2.11-2.83-2.01-4.17,.11-1.59,1.28-2.47,1.33-2.5l.12-.07c5.61-2.04,7.58-5.12,8.26-6.78-2.56,1.18-5.25,2.04-8,2.58-2.68,.27-4.27-.15-4.93-1.28-.86-1.48,.45-3.53,.69-3.89,.44-1.09,.49-1.99,.16-2.66-.41-.83-1.31-1.07-1.32-1.07-4.44-1.58-6.84-3.39-7.2-5.38-.3-1.71,1.03-2.83,1.08-2.88l.13-.08c4.52-1.88,7.72-5.88,8.58-10.69-.72-22.19,12.67-32.12,12.81-32.21l.14-.07,9.74-3.01,41.19,14.97,4.47,54.38,1.41,10.58-14.9,14.31-23.82,12.26Zm-1.1-27.23l.22,.32c.24,.35,5.67,8.63,2.29,25.07l21.9-11.27,14.37-13.83-1.35-10.11-4.42-53.78-40.29-14.65-9.34,2.89c-.97,.75-13.03,10.48-12.34,31.39v.05s0,.05,0,.05c-.9,5.14-4.29,9.42-9.1,11.45-.19,.18-.88,.92-.69,1.92,.2,1.11,1.5,2.81,6.51,4.6h0s1.28,.33,1.91,1.56c.48,.95,.44,2.14-.14,3.53l-.05,.1c-.36,.5-1.18,2.01-.67,2.88,.43,.74,1.79,1.01,3.93,.8,2.63-.51,5.24-1.35,7.72-2.48,.38-.17,.81-.1,1.1,.19,.29,.28,.37,.69,.22,1.06-.74,1.8-2.85,5.13-8.75,7.3-.18,.16-.82,.78-.89,1.76-.07,1,.46,2.08,1.56,3.22,.05,0,.1,.02,.16,.04,.33,.13,1.01,.42,1.3,5.62v.07s-.01,.07-.01,.07c-.02,.08-.42,1.96,1.14,3.32,2.13,1.85,7.91,2.83,23.33-3.01l.36-.14Z" fill="#002346"/>
    </g>
    <g>
      <path d="M593.04,192.83c-4.64-.8-9.43-13.28-9.43-13.28-4.44-17-10.37-17.77-10.37-17.77-8.14-14.08-19.85,13.91-19.85,13.91,0,0-12.74-24.28,19.11-30.21,0,0,41.48-24.44,68.14,21.48,0,0,16.76,27.87-15,53.63-4.41,3.59-10.53,4.2-15.56,1.54-4.77-2.4-8.55-6.4-10.68-11.3l.51-12v-5l-6.87-1" fill="#002346"/>
      <path d="M616.7,224.28c-2.34,0-4.69-.56-6.85-1.7-4.86-2.45-8.73-6.55-10.9-11.54l-.05-.11,.51-12.12v-4.55s-6.46-.94-6.46-.94c-4.86-.84-9.61-13.07-9.81-13.59-4.28-16.38-9.92-17.44-9.97-17.45l-.24-.04-.13-.21c-1.49-2.57-3.19-3.82-5.03-3.7-6.68,.43-13.85,17.38-13.92,17.55l-.41,.98-.49-.94c-.21-.4-5.1-9.92-.87-18.64,3-6.19,9.81-10.32,20.25-12.27,1.3-.74,18.22-9.98,36.92-5.08,12.73,3.33,23.44,12.35,31.82,26.79,.17,.28,16.61,28.53-15.12,54.27-2.68,2.18-5.95,3.3-9.25,3.3Zm-16.8-13.54c2.09,4.73,5.78,8.62,10.4,10.95,4.87,2.57,10.76,1.99,15.02-1.48,31.04-25.17,15.05-52.71,14.89-52.98-8.25-14.2-18.74-23.06-31.2-26.33-18.96-4.97-36.08,4.92-36.25,5.02l-.16,.06c-10.15,1.89-16.75,5.84-19.61,11.74-3.25,6.7-.71,14.12,.4,16.75,1.72-3.82,7.98-16.73,14.33-17.14,2.21-.14,4.18,1.21,5.85,4.01,1.24,.35,6.52,2.73,10.53,18.08,1.29,3.34,5.45,12.29,9.02,12.91l7.29,1.06v5.43l-.51,11.91Z" fill="#002346"/>
    </g>
    <g>
      <ellipse cx="599.91" cy="198.81" rx="8.15" ry="11.11" fill="#f2b3c1"/>
      <path d="M599.91,210.41c-4.76,0-8.64-5.21-8.64-11.6s3.88-11.6,8.64-11.6,8.64,5.21,8.64,11.6-3.88,11.6-8.64,11.6Zm0-22.22c-4.22,0-7.66,4.76-7.66,10.62s3.44,10.62,7.66,10.62,7.66-4.76,7.66-10.62-3.44-10.62-7.66-10.62Z" fill="#002346"/>
    </g>
    <g>
      <path d="M549.54,273.62s12.78-5.34,19.72-13.41l14.75-16s.6,9.22-1,16l-11.24,11.18c-3.31,.47-6.57,1.22-9.75,2.23,0,0-7.29,3.7-12.48,0Z" fill="#fff"/>
      <path d="M555.1,275.78c-1.94,0-4.01-.44-5.85-1.75l-.73-.52,.83-.35c.13-.05,12.75-5.39,19.53-13.28l15.55-16.87,.08,1.16c0,.09,.59,9.37-1.01,16.15l-.03,.14-11.46,11.4-.16,.02c-3.27,.47-6.52,1.21-9.67,2.21-.15,.08-3.36,1.68-7.07,1.68Zm-4.5-2.08c4.81,2.64,11.13-.49,11.19-.52,3.22-1.03,6.47-1.78,9.74-2.25l11.02-10.96c1.2-5.19,1.11-11.85,1.01-14.53l-13.94,15.12c-5.88,6.83-16.01,11.78-19.03,13.15Z" fill="#002346"/>
    </g>
    <g>
      <path d="M555.47,486.19c11.75,9.95,25.34,17.5,40,22.22,0,0,25.08-46.39,35.5-89.49l14.84-56.87s16.59-50.58,7.94-68.77c0,0-16.8-29.29-37.54-10,0,0-23.1,12.33-16.9,51.94,.39,2.41,.45,4.86,.16,7.28-1.41,11.58-6.09,46.46-12.79,61.31-.07,.15-.12,.3-.17,.46-.3,1.13-1.39,5.81,.25,9.18,.53,1.13,.34,2.46-.47,3.4-2.79,3.27-3.73,7.72-2.5,11.84,.2,.77,.12,1.58-.24,2.29l-28.08,55.21Z" fill="#fbe493"/>
      <path d="M595.71,509.01l-.4-.13c-14.79-4.77-28.31-12.27-40.17-22.31l-.3-.26,28.26-55.56c.3-.6,.37-1.29,.2-1.94-1.28-4.28-.31-8.88,2.6-12.29,.68-.79,.84-1.92,.4-2.86-1.69-3.46-.64-8.16-.28-9.52,.06-.19,.12-.37,.2-.54,6.74-14.94,11.46-50.59,12.75-61.17,.28-2.38,.23-4.78-.16-7.14-6.03-38.5,15.77-51.67,17.1-52.43,5.6-5.19,11.45-7.38,17.39-6.47,12.28,1.86,20.53,16.03,20.88,16.63,8.65,18.2-7.22,67.1-7.9,69.17l-14.83,56.84c-10.31,42.66-35.29,89.14-35.54,89.6l-.2,.37Zm-39.62-22.95c11.58,9.74,24.74,17.05,39.13,21.74,2.37-4.46,25.46-48.47,35.26-89l14.84-56.88c.17-.53,16.44-50.63,7.97-68.43-.06-.11-8.35-14.32-20.15-16.11-5.64-.85-11.22,1.25-16.6,6.26l-.1,.08c-.23,.12-22.71,12.66-16.64,51.42,.4,2.45,.46,4.95,.16,7.42-1.29,10.61-6.03,46.39-12.83,61.46-.06,.13-.11,.26-.15,.4-.24,.89-1.36,5.58,.22,8.82,.61,1.31,.4,2.86-.54,3.94-2.69,3.15-3.58,7.4-2.4,11.37,.24,.9,.14,1.84-.27,2.66l-27.9,54.86Z" fill="#002346"/>
    </g>
    <g>
      <path d="M559.78,489.7l-2.83,5.37s14.15,15.85,33.74,18.29l3.22-5.46s-20.19-6.54-34.13-18.2Z" fill="#fff"/>
      <path d="M590.96,513.9l-.33-.04c-19.55-2.43-33.91-18.29-34.05-18.45l-.23-.26,3.28-6.22,.47,.4c13.71,11.47,33.76,18.04,33.96,18.11l.59,.19-3.7,6.28Zm-33.4-18.91c1.91,2.02,15.21,15.49,32.87,17.83l2.74-4.65c-3.4-1.17-20.74-7.46-33.23-17.7l-2.38,4.51Z" fill="#002346"/>
    </g>
    <g>
      <path d="M556.95,495.07s-23.7,14.08-12.59,28.15c0,0-3.71,8.15,.74,10.37,0,0,1.06,1.48,4.6,0,0,0,.58,3.39,7.25,1.32,0,0,.53,3.4,7.67,.67,0,0,4.56,2.27,10.88-2.8,2.23-1.79,4.01-4.06,5.4-6.56,1.87-3.39,4.66-9.1,5.07-13.72-11.1-3.02-21.14-9.05-29.01-17.43Z" fill="#f2b3c1"/>
      <path d="M559.97,537.13c-.9,0-1.66-.17-2.26-.52-.58-.33-.89-.76-1.06-1.1-2.7,.78-4.76,.75-6.1-.08-.61-.38-.95-.84-1.13-1.2-2.99,1.1-4.28,.11-4.62-.24-4.27-2.24-1.63-9.2-1-10.7-2.45-3.21-3.35-6.67-2.67-10.31,1.87-10.08,15.02-18,15.58-18.33l.34-.2,.27,.29c7.81,8.32,17.77,14.3,28.78,17.29l.4,.11-.04,.41c-.4,4.56-3.01,10.09-5.13,13.92-1.5,2.72-3.36,4.97-5.52,6.71-5.81,4.66-10.2,3.34-11.2,2.94-1.83,.68-3.38,1.02-4.64,1.02Zm-2.62-2.86l.09,.56s.11,.56,.79,.94c.83,.47,2.59,.73,6.21-.66l.2-.08,.19,.1c.17,.08,4.38,2.05,10.35-2.74,2.06-1.65,3.83-3.81,5.27-6.41,1.65-2.98,4.44-8.57,4.97-13.12-10.9-3.04-20.76-8.97-28.56-17.16-2.07,1.31-13.15,8.68-14.78,17.46-.64,3.43,.26,6.72,2.66,9.75l.19,.24-.12,.27c-.03,.08-3.46,7.75,.51,9.73l.11,.05,.07,.1s.94,1.12,4.01-.17l.57-.24,.1,.61s.14,.65,.9,1.1c.81,.48,2.46,.84,5.72-.17l.54-.17Z" fill="#002346"/>
    </g>
    <g>
      <path d="M307.41,243.56l-.59,7.68-.94,12.29c-14.4-7.2-45-31.87-53-38.34-1.01-.82-1.28-2.25-.65-3.39,.81-1.55,1.5-3.16,2.06-4.82,1.67-10,5-8.67,5-8.67l.45,.07-.45,3.61c1.66,3.32,13.3,6.65,13.3,6.65,10,3.32,15,8.31,15,8.31l13.3,10,5.32,4c.82,.61,1.27,1.59,1.2,2.61Z" fill="#fff"/>
      <path d="M306.32,264.31l-.67-.33c-9.49-4.74-28.34-18.38-53.09-38.4-1.2-.98-1.52-2.67-.77-4.02,.79-1.51,1.47-3.11,2.02-4.74,.79-4.77,2.1-7.73,3.87-8.73,.84-.47,1.51-.33,1.72-.27l.89,.14-.49,3.93c1.49,2.53,9.79,5.37,12.92,6.27,10.02,3.33,15.01,8.23,15.22,8.44l18.57,13.95c.96,.71,1.48,1.85,1.4,3.04h0s-1.59,20.72-1.59,20.72Zm-47.42-55.56c-.17,0-.44,.04-.77,.24-.83,.5-2.36,2.2-3.34,8.07-.59,1.75-1.29,3.4-2.11,4.97-.52,.94-.3,2.1,.52,2.77,24.13,19.51,42.62,32.94,52.24,37.94l1.47-19.22c.06-.85-.32-1.66-1-2.17l-18.62-14c-.1-.09-5.1-5-14.86-8.24-.46-.13-11.85-3.42-13.59-6.9l-.07-.14,.41-3.28-.08-.03s-.08-.02-.21-.02Z" fill="#002346"/>
    </g>
    <g>
      <path d="M327.5,157.9c-1.3-5.85-2.93-8.49-3.28-9v-.07h0c-.16-.05-.32-.11-.48-.18-.4-.16-.79-.34-1.17-.54-.35-.18-.7-.38-1.06-.59s-.48-.3-.72-.46-.51-.32-.76-.49l-.71-.51c-.51-.36-1.02-.74-1.53-1.14l-.66-.52c-.31-.25-.62-.51-.93-.75l-1-.86-.74-.65c-.16-.13-.32-.28-.46-.41l-.69-.62h0c-1.23-1.14-2.92-1.67-4.58-1.43l-.61,.08h-.44c-6,.28-15-4.25-15-4.25-5.88-2.34-14.22-3-18.62-3.23-.38-.02-.7,.27-.72,.64-.01,.25,.11,.49,.33,.62,6.4,3.74,21,15.46,1.55,36.9-6,0-10.81,5.94-10.81,13.29-.11,3.73,1.22,7.37,3.71,10.15-2.16,7.3-5,8.3-7.5,7.35-2.63-1-4.68-4.21-4.68-4.21-3.38-3.32-6.63-6.65-6.63-6.65-13.29-10-12.31-19.94-12.31-19.94-4-34.93,20.63-39.91,20.63-39.91,1.66-11.64,28.26-13.4,28.26-13.4,24.94-5.07,41.57,15.07,41.57,15.07,13.29,10.31,2.66,22.96,.04,25.71Z" fill="#002346"/>
      <path d="M262.15,202.03c-.55,0-1.12-.11-1.71-.33-2.6-.99-4.61-3.93-4.89-4.36-3.33-3.27-6.57-6.58-6.6-6.62-12.94-9.73-12.52-19.37-12.45-20.28-3.72-32.68,17.7-39.53,20.69-40.32,2.13-11.6,27.57-13.42,28.67-13.49,24.31-4.95,41.04,14.14,41.95,15.21,4.11,3.2,6.35,6.93,6.66,11.09,.54,7.22-4.92,13.56-6.61,15.33l-.65,.68-.2-.92c-1.26-5.67-2.8-8.22-3.17-8.78-.1-.04-.2-.08-.3-.12-.39-.15-.8-.34-1.2-.55-.35-.18-.71-.39-1.08-.6-.3-.17-.44-.27-.61-.39l-.13-.09c-.11-.07-.22-.14-.33-.21-.14-.09-.29-.18-.43-.28l-.72-.52c-.51-.36-1.03-.75-1.55-1.15l-.97-.78c-.2-.17-.41-.33-.61-.49l-1.76-1.53c-.15-.12-.32-.28-.47-.42l-.68-.61c-1.13-1.05-2.65-1.52-4.18-1.31l-.62,.08h-.51c-6.03,.3-14.85-4.11-15.22-4.3-4.18-1.66-10.57-2.77-18.42-3.18-.06,0-.11,.03-.13,.05-.02,.02-.06,.06-.06,.12,0,.07,.03,.13,.09,.16,3.71,2.17,10.14,6.99,11.34,14.8,1.06,6.92-2.19,14.61-9.68,22.86l-.15,.16h-.22c-5.69,0-10.31,5.74-10.31,12.79-.1,3.64,1.17,7.12,3.58,9.82l.19,.21-.08,.27c-1.23,4.16-2.76,6.64-4.67,7.59-.57,.28-1.16,.42-1.78,.42Zm31.7-85.22c-2.52,0-5.14,.25-7.86,.8-.33,.03-26.28,1.87-27.86,12.98l-.05,.35-.35,.07c-.24,.05-24.13,5.32-20.23,39.36v.05s0,.05,0,.05c0,.1-.76,9.8,12.11,19.49,.09,.08,3.34,3.42,6.68,6.69l.07,.09s2,3.08,4.44,4.01c.98,.37,1.86,.36,2.68-.05,1.59-.79,2.96-3.05,4.08-6.71-2.46-2.86-3.76-6.5-3.65-10.29,0-7.5,4.95-13.63,11.09-13.77,7.17-7.96,10.29-15.32,9.29-21.88-1.14-7.4-7.29-12.01-10.86-14.09-.38-.23-.6-.64-.57-1.08,.02-.31,.16-.6,.39-.81,.23-.21,.53-.31,.85-.3,8.07,.42,14.39,1.52,18.78,3.26,.13,.06,9,4.5,14.79,4.22h.46s.54-.08,.54-.08c1.82-.26,3.64,.31,4.99,1.56l.68,.61c.14,.13,.29,.27,.44,.39l1.75,1.52c.19,.15,.4,.32,.61,.49l.96,.76c.51,.39,1.01,.77,1.51,1.12l.71,.51c.12,.08,.26,.17,.39,.25,.12,.08,.24,.15,.36,.23l.14,.09c.16,.1,.28,.19,.56,.35,.35,.21,.69,.4,1.04,.58,.37,.2,.75,.37,1.12,.52,.16,.07,.3,.12,.45,.17l.35,.11v.29c.45,.69,1.85,3.13,3.05,8.11,2.04-2.31,6.15-7.79,5.7-13.87-.29-3.88-2.42-7.38-6.32-10.4l-.08-.08c-.15-.18-13.24-15.7-33.22-15.7Z" fill="#002346"/>
    </g>
    <g>
      <path d="M283.7,183.72c0,7.35-4.84,13.31-10.8,13.31-2.67-.03-5.21-1.17-7-3.15-2.52-2.78-3.87-6.41-3.78-10.16,0-7.34,4.84-13.3,10.81-13.3s10.77,5.96,10.77,13.3Z" fill="#f2b3c1"/>
      <path d="M272.9,197.52c-2.8-.03-5.49-1.24-7.36-3.31-2.61-2.88-4-6.61-3.91-10.5,0-7.59,5.07-13.78,11.3-13.78s11.26,6.19,11.26,13.79-5.07,13.8-11.29,13.8Zm.03-26.61c-5.69,0-10.32,5.75-10.32,12.81-.09,3.65,1.21,7.13,3.65,9.83,1.7,1.87,4.12,2.96,6.64,2.99,5.68,0,10.3-5.75,10.3-12.82s-4.61-12.81-10.28-12.81Z" fill="#002346"/>
    </g>
    <g>
      <path d="M590.69,279.46s-2.63-20.66-21.15-8.81c0,0-2.22-3,5.93-5.92,0,0,7.67-3.54,11.95-8.52,1.83-2.17,3.8-4.22,5.92-6.11,6.58-5.76,19.35-15.45,31.75-16.48l4.44,9.63s-12.59,6.67-23.7,22.22c0,0-6.58,10.94-15.14,13.99Z" fill="#fff"/>
      <path d="M590.28,280.14l-.08-.62c-.01-.09-1.17-8.62-6.82-11.26-3.52-1.65-8.09-.7-13.57,2.8l-.39,.25-.28-.38s-.62-.86-.25-2.07c.53-1.73,2.68-3.28,6.42-4.62,.03-.02,7.58-3.54,11.74-8.38,1.83-2.18,3.84-4.25,5.97-6.16,6.58-5.76,19.48-15.56,32.04-16.61l.35-.03,4.78,10.38-.42,.22c-.12,.07-12.62,6.81-23.53,22.07-.25,.42-6.75,11.1-15.38,14.17l-.58,.21Zm-10.57-13.66c1.47,0,2.84,.29,4.1,.88,5.28,2.47,6.9,9.29,7.28,11.41,8.02-3.22,14.25-13.46,14.31-13.56,9.95-13.92,21.2-20.86,23.48-22.17l-4.1-8.89c-12.17,1.17-24.7,10.71-31.11,16.33-2.09,1.87-4.06,3.91-5.87,6.06-4.31,5.01-11.81,8.51-12.12,8.65-4.52,1.62-5.6,3.19-5.84,3.99-.09,.29-.09,.54-.06,.74,3.69-2.28,7.01-3.42,9.92-3.42Z" fill="#002346"/>
    </g>
    <path d="M304.24,222.48c-.06,0-.13-.01-.19-.04-.57-.24-14.14-6.01-19.22-17.35-.11-.25,0-.55,.25-.66,.25-.12,.55,0,.66,.25,4.92,10.97,18.56,16.78,18.69,16.83,.25,.11,.37,.4,.27,.65-.08,.19-.27,.31-.46,.31Z" fill="#002346"/>
    <path d="M415.25,438.76c-.1,0-.21-.03-.3-.1-.22-.17-.27-.48-.1-.7l2.98-3.98c.17-.22,.48-.27,.7-.1,.22,.17,.27,.48,.1,.7l-2.98,3.98c-.1,.13-.25,.2-.4,.2Z" fill="#002346"/>
    <path d="M421.57,440.86c-.1,0-.2-.03-.29-.09-.22-.16-.28-.47-.11-.7l2.92-4.06c.16-.22,.47-.27,.7-.11,.22,.16,.28,.47,.11,.7l-2.92,4.06c-.1,.14-.25,.21-.41,.21Z" fill="#002346"/>
    <path d="M426.12,442.99c-.12,0-.24-.04-.33-.13-.21-.18-.22-.5-.04-.71l3.05-3.39c.18-.21,.5-.22,.71-.04s.22,.5,.04,.71l-3.05,3.39c-.1,.11-.24,.17-.37,.17Z" fill="#002346"/>
    <path d="M440.55,443.6c-.13,0-.27-.05-.37-.16l-6.32-6.83c-.19-.2-.18-.52,.03-.71,.2-.19,.52-.18,.71,.03l6.32,6.83c.19,.2,.18,.52-.03,.71-.1,.09-.22,.13-.34,.13Z" fill="#002346"/>
    <path d="M449.17,438.31c-.15,0-.31-.07-.4-.21l-6.37-8.73c-.16-.22-.11-.54,.11-.7,.22-.16,.54-.11,.7,.11l6.37,8.73c.16,.22,.11,.54-.11,.7-.09,.06-.19,.1-.29,.1Z" fill="#002346"/>
    <path d="M455.55,430.29c-.16,0-.32-.08-.42-.22l-6.38-9.47c-.15-.23-.09-.54,.14-.69,.23-.15,.54-.09,.69,.14l6.38,9.47c.15,.23,.09,.54-.14,.69-.09,.06-.18,.08-.28,.08Z" fill="#002346"/>
    <path d="M804.66,550.65H41.73c-.28,0-.5-.22-.5-.5s.22-.5,.5-.5H804.66c.28,0,.5,.22,.5,.5s-.22,.5-.5,.5Z" fill="#002346"/>
    <path d="M544.36,523.72c-.07,0-.15-.02-.22-.05-.25-.12-.35-.42-.23-.67l5.55-11.54c.12-.25,.42-.35,.67-.23,.25,.12,.35,.42,.23,.67l-5.55,11.54c-.09,.18-.26,.28-.45,.28Z" fill="#002346"/>
    <path d="M549.7,534.09c-.09,0-.17-.02-.25-.07-.24-.14-.32-.45-.18-.68l9.38-16.14c.14-.24,.44-.32,.68-.18,.24,.14,.32,.45,.18,.68l-9.38,16.14c-.09,.16-.26,.25-.43,.25Z" fill="#002346"/>
    <path d="M556.95,535.41c-.09,0-.19-.03-.27-.08-.23-.15-.3-.46-.14-.69l7.67-11.69c.15-.23,.46-.29,.69-.14,.23,.15,.3,.46,.14,.69l-7.67,11.69c-.1,.15-.26,.23-.42,.23Z" fill="#002346"/>
    <path d="M564.62,536.08c-.1,0-.21-.03-.3-.1-.22-.17-.27-.48-.1-.7l7.32-9.75c.17-.22,.48-.27,.7-.1,.22,.17,.27,.48,.1,.7l-7.32,9.75c-.1,.13-.25,.2-.4,.2Z" fill="#002346"/>
  </g>
  <g>
    <g>
      <path d="M154.81,463.55s22.73-19.12,48.54-.51c0,0,16.21,12.6,5.4,23.41,0,0-11.4,7.8-28.21-5.4,0,0-17.86-14.58-25.74-17.49Z" fill="#7cd295"/>
      <path d="M199.63,489.29c-5,0-11.69-1.67-19.46-7.77-.19-.15-17.88-14.56-25.57-17.4l-.98-.36,.8-.67c.23-.19,23.4-19.21,49.29-.54,.38,.29,8.85,6.97,9.34,14.96,.21,3.43-1.09,6.58-3.87,9.37-.11,.08-3.64,2.42-9.55,2.42Zm-43.61-25.9c8.25,3.62,24.21,16.61,24.91,17.19,16.26,12.77,27.37,5.45,27.49,5.37,2.44-2.45,3.62-5.29,3.43-8.36-.46-7.45-8.78-14.01-8.86-14.07-22.4-16.14-42.69-3.23-46.96-.13Z" fill="#002346"/>
    </g>
    <g>
      <path d="M129.68,454.21s25.06-34.98,10.06-69.2c0,0-16.81-33.61,3-43.82,0,0,24.61-10.2,37.81,25.81,0,0,17.7,52.56-50.87,87.2Z" fill="#7cd295"/>
      <path d="M127.75,455.86l1.43-2c.25-.35,24.68-35.11,9.99-68.6-.16-.31-16.83-34.24,3.28-44.6,.39-.17,8.71-3.52,18.4,.72,8.65,3.79,15.47,12.34,20.26,25.41,.05,.15,4.44,13.52,.3,30.96-3.81,16.06-15.84,38.99-51.47,56.99l-2.2,1.11Zm22.95-115.38c-4.56,0-7.68,1.26-7.73,1.28-19,9.79-2.86,42.65-2.69,42.99,12.97,29.58-3.91,60.01-8.83,67.88,33.6-17.6,45.09-39.59,48.78-55.08,4.08-17.11-.21-30.21-.25-30.34-4.67-12.73-11.27-21.05-19.6-24.71-3.51-1.54-6.86-2.02-9.67-2.02Z" fill="#002346"/>
    </g>
    <g>
      <path d="M65.97,353.38c-6.22,3.07-10.31,9.38-10.21,16.31,.13,8.67,5.44,20.6,30.55,27.32,0,0,29.45,7.3,32.73,29.16,0,0,8.12-27.09-5.73-52.96-5.31-9.91-14.14-17.57-24.9-20.84-6.76-2.05-14.82-2.75-22.44,1.01Z" fill="#7cd295"/>
      <path d="M118.85,428.94l-.4-2.67c-3.18-21.2-31.99-28.59-32.28-28.66-25.39-6.8-30.88-18.92-31.01-27.9-.1-7.04,4.04-13.66,10.55-16.87h0c6.66-3.28,14.36-3.63,22.89-1.04,10.73,3.25,19.7,10.76,25.26,21.13,13.81,25.79,5.86,53.15,5.78,53.42l-.78,2.59Zm-41.02-77.64c-4.16,0-8.03,.88-11.58,2.63h0c-6.09,3-9.97,9.19-9.87,15.76,.13,8.56,5.45,20.15,30.1,26.74,.28,.07,27.45,7.03,32.62,26.97,1.58-7.36,4.8-29.15-6.31-49.9-5.4-10.09-14.12-17.38-24.54-20.54-3.64-1.1-7.12-1.66-10.42-1.66Z" fill="#002346"/>
    </g>
    <g>
      <path d="M64.58,443.37c1.51,2.88,4.31,6.09,9.14,9.46,0,0,18.96,10.99,23.88,26.5,0,0-.47-25.3-14.88-44.51,0,0-1.25-2.36-3.82-4.21-8.49-6.11-19.18,3.5-14.32,12.76Z" fill="#7cd295"/>
      <path d="M98.28,483.49l-1.26-3.97c-4.8-15.11-23.42-26.05-23.61-26.16-4.5-3.14-7.63-6.4-9.37-9.7h0c-2.71-5.17-.75-10.24,2.4-12.98,3.74-3.25,8.76-3.46,12.8-.55,2.65,1.91,3.95,4.32,4,4.42,14.31,19.06,14.95,44.52,14.95,44.78l.08,4.16Zm-25.05-54.19c-2.39,0-4.52,1.02-5.99,2.29-2.59,2.25-4.7,6.61-2.13,11.5h0c1.64,3.13,4.65,6.24,8.95,9.25,.68,.39,16.29,9.56,22.65,23.11-.78-7.81-3.69-25.87-14.48-40.26-.06-.1-1.28-2.35-3.69-4.08-1.8-1.3-3.62-1.81-5.32-1.81Z" fill="#002346"/>
    </g>
    <g>
      <polygon points="87.52 503.26 90.71 565.98 143.94 565.98 147.54 503.86 87.52 503.26" fill="#fff"/>
      <path d="M143.94,566.59h-53.23c-.32,0-.59-.25-.6-.57l-3.19-62.72c0-.17,.05-.33,.17-.45,.12-.12,.26-.19,.44-.19l60.02,.6c.17,0,.32,.07,.44,.19,.11,.12,.17,.28,.16,.45l-3.6,62.13c-.02,.32-.28,.57-.6,.57Zm-52.65-1.21h52.08l3.53-60.92-58.74-.58,3.13,61.5Z" fill="#002346"/>
    </g>
    <path d="M128.93,503.56s-.03,0-.05,0c-.33-.03-.58-.32-.56-.65,.02-.25,2.08-25.01,19.1-36.54,10.09-6.83,23.31-7.74,39.3-2.71,.32,.1,.5,.44,.4,.76s-.44,.5-.76,.4c-15.62-4.91-28.49-4.05-38.25,2.55-16.54,11.2-18.56,35.39-18.58,35.63-.02,.32-.29,.56-.6,.56Z" fill="#002346"/>
    <path d="M119.69,503.14c-.26,0-.51-.18-.58-.44-9.43-33.72,13.41-53.26,18.08-56.84,1.39-1.07,3.03-2.34,4.6-3.69,41.47-35.69,17.48-75.65,17.23-76.05-.18-.28-.09-.66,.2-.83,.29-.18,.66-.09,.83,.2,.25,.41,24.8,41.22-17.47,77.6-1.6,1.38-3.25,2.66-4.66,3.74-4.57,3.49-26.87,22.58-17.65,55.55,.09,.32-.1,.66-.42,.75-.05,.02-.11,.02-.16,.02Z" fill="#002346"/>
    <path d="M115.37,503.59c-.2,0-.4-.1-.52-.29-14.67-23.64-3.73-53.75-.03-62.42,.93-2.18,1.59-4.01,2.07-5.74,10.3-37.1-21.01-59.62-21.33-59.84-.27-.19-.34-.57-.15-.84,.19-.27,.57-.34,.84-.15,.32,.23,32.33,23.21,21.8,61.16-.5,1.78-1.17,3.66-2.12,5.89-3.64,8.53-14.42,38.16-.06,61.3,.18,.28,.09,.66-.2,.83-.1,.06-.21,.09-.32,.09Z" fill="#002346"/>
    <path d="M99.95,503.21s-.02,0-.02,0c-.33-.01-.59-.3-.58-.63,1.59-39.41-21.53-55.09-21.76-55.25-.28-.18-.36-.56-.17-.84,.18-.28,.56-.36,.84-.17,.24,.16,23.92,16.17,22.3,56.31-.01,.33-.28,.58-.6,.58Z" fill="#002346"/>
  </g>
  <g>
    <ellipse cx="294.02" cy="139.5" rx="32" ry="16" fill="#002346"/>
    <path d="M294.02,156c-17.92,0-32.5-7.4-32.5-16.5s14.58-16.5,32.5-16.5,32.5,7.4,32.5,16.5-14.58,16.5-32.5,16.5Zm0-32c-17.37,0-31.5,6.95-31.5,15.5s14.13,15.5,31.5,15.5,31.5-6.95,31.5-15.5-14.13-15.5-31.5-15.5Z" fill="#002346"/>
  </g>
</svg>